<?xml version="1.0" encoding="UTF-8" standalone="no"?>
<svg version="1.1" xmlns="http://www.w3.org/2000/svg" xmlns:xlink="http://www.w3.org/1999/xlink" width="880.8" height="371.04">
	<g id="dp_dp001" transform="matrix(1,0,0,1,-59.6867,-179.539)">
		<path id="dp_path002" fill="black" fill-rule="evenodd" d="M 457.847,184.615 C 451.108,191.355 445.32,198.861 439.503,206.405 C 426.463,223.315 419.103,244.933 411.592,264.744 C 408.368,273.251 406.2,275.692 401.875,275.692 C 401.231,275.692 398.769,275.692 396.308,275.692 L 320,275.692 C 306.604,275.692 293.664,276.941 280.357,278.411 C 273.795,280.787 267.229,283.163 260.667,285.539 C 250.123,290.809 239.567,293.211 227.692,294.153 C 217.397,294.972 202.997,297.741 195.692,300.308 C 188.388,302.875 178.419,305.585 173.539,306.333 C 156.455,308.951 138.503,314.62 123.077,322.333 C 109.445,329.149 95.148,334.36 80.9733,339.949 C 76.0907,344.832 71.1133,349.577 65.9947,354.217 C 59.6573,359.961 56.8347,367.644 63.9533,373.239 C 67.768,376.235 63.896,378.28 61.3107,380.311 C 60.116,385.053 59.228,389.476 61.6147,394.127 C 63.3293,397.468 68.1613,399.823 76.512,401.383 C 92.412,404.353 107.083,414.119 121.625,421.011 C 141.324,424.156 160.693,428.016 179.949,433.231 C 195.091,439.516 210.509,441.375 226.719,443.077 C 233.732,446.584 240.869,448.833 248.615,450.333 C 270.989,454.664 294.56,454.293 317.281,455.385 L 318.36,455.867 L 319.439,456.351 L 323.505,478.139 C 325.683,489.807 328.111,501.259 332.565,512.257 L 335.728,517.481 C 342.485,528.64 354.479,537.849 364.755,545.703 C 372.375,551.525 378.628,552.633 386.613,545.385 C 401.363,531.997 400.357,511.9 406.153,494.512 C 409.217,485.321 411.296,473.956 401.231,468.923 C 395.359,465.987 389.872,462.731 384.321,459.237 C 401.112,456.275 418.683,457.847 435.692,457.847 C 432.533,456.492 421.272,455.385 410.667,455.385 L 391.385,455.385 L 391.385,454.153 C 391.385,452.923 391.385,452.923 391.385,452.923 C 374.153,452.923 374.153,452.923 329.847,450.461 L 292.923,450.461 L 292.923,448 C 267.203,448 243.76,445.132 219.333,438.153 C 229.831,435.241 239.991,432.137 247.021,423.503 C 253.06,416.085 258.567,408.789 262.635,400.023 C 269.812,384.555 268.909,366.632 265.012,350.523 C 271.555,356.597 276.815,361.941 277.707,371.439 C 278.385,378.651 277.352,382.992 274.003,387.012 C 269.419,392.512 269.431,392.605 274.859,394.317 C 278.131,395.348 280.891,396.068 284.308,396.179 C 286.48,396.251 289.584,397.277 291.205,398.461 C 303.953,407.775 318.117,399.797 329.975,393.717 C 336.747,390.245 341.455,384.699 346.82,379.333 C 349.8,378.819 352.18,377.047 354.591,375.256 C 356.923,374.153 359.385,371.692 359.385,371.692 C 362.289,365.884 364.68,362.061 369.512,357.767 C 374.537,353.3 375.892,352.361 381.007,349.804 C 384.196,348.209 387.281,345.283 387.864,343.299 C 388.923,342.153 388.923,339.692 388.923,339.692 L 388.923,329.847 L 384,327.385 L 354.461,327.385 L 322.204,330.104 C 315.64,331.744 309.076,333.385 302.512,335.027 L 293.896,337.488 C 289.157,338.843 283.677,340.999 281.717,342.283 C 280.615,342.153 278.153,344.615 278.153,344.615 L 278.153,347.077 C 276.923,347.077 275.692,347.077 274.461,347.077 C 273.231,347.077 273.231,347.077 273.231,347.077 C 265.075,349.9 264.603,349.744 262.631,343.568 C 261.497,340.012 259.332,337.441 257.82,337.853 C 255.759,338.416 255.803,340.861 257.997,347.635 C 263.812,365.584 266.457,389.192 253.667,404.923 C 250.429,408.904 248.251,412.681 246.647,417.477 L 240.592,422.859 C 234.511,428.264 227.224,433.231 218.596,433.231 C 216.615,433.231 214.153,433.231 214.153,433.231 C 206.769,433.231 206.769,433.231 204.308,433.231 C 197.255,435.503 185.884,434.521 180.456,428.657 C 179.381,427.496 171.512,425.835 162.968,424.965 C 135.411,422.16 110.777,408.748 86.4107,396.565 C 81.5533,394.136 77.684,393.533 72.144,393.007 C 64.4987,392.279 63.4907,391.453 64.624,386.852 C 66.8053,377.987 75.5787,382.093 80.3187,385.231 C 86.248,389.156 91.8,390.175 98.7187,391.643 C 107.713,397.655 116.455,398.769 127.435,398.769 C 139.481,398.769 153.621,398.501 163.949,391.256 C 170.864,386.405 176.972,380.355 183.271,374.744 L 187.507,373.219 C 191.427,371.805 191.403,371.517 187.177,369.345 C 182.397,366.888 181.092,361.887 179.692,357.18 L 177.36,363.077 C 176.076,366.32 175.16,370.4 175.323,372.143 C 175.487,373.885 172.677,377.928 169.08,381.125 C 157.656,391.28 139.935,393.847 125.281,393.847 C 108.361,393.847 86.2973,389.067 73.8467,376.615 C 70.5733,373.343 67.2133,370.495 63.508,367.753 C 64.8693,361.028 70.8013,355.115 76.5653,351.743 C 86.6573,343.961 97.6947,337.388 109.381,332.308 L 111.305,332.308 C 110.769,332.308 113.231,332.308 113.231,332.308 L 123.077,327.385 C 133.117,324.037 143.071,320.541 153.003,316.891 C 160.172,314.731 167.343,312.571 174.512,310.411 C 187.657,310.076 200.255,308.449 213.052,305.103 C 216.615,302.769 226.461,300.308 231.385,300.308 C 238.769,297.847 238.769,297.847 253.539,297.847 C 262.956,287.995 280.997,286.02 293.896,284.436 C 322.093,280.976 350.951,281.555 379.333,280.615 C 400.333,280.615 421.153,283.168 442.104,284.565 C 481.689,287.204 520.32,294.392 559.027,302.769 C 575.697,305.071 590.748,310.529 606.769,315.205 C 612.091,316.759 616.099,318.127 620.565,321.36 C 628.927,327.412 639.737,329.137 649.589,332.051 C 658.357,333.909 667.129,335.627 675.949,337.231 C 685.779,339.017 694.811,341.467 704.257,344.615 L 706.591,344.615 C 706.461,344.615 708.923,344.615 708.923,344.615 L 736,344.615 C 748.308,342.153 748.308,342.153 753.231,344.615 L 755.692,344.615 L 755.692,342.153 L 753.231,342.153 L 753.231,339.692 L 753.231,337.231 L 750.769,337.231 C 724.784,339.213 714.015,338.975 695.385,336 L 672.257,332.308 L 676.231,331.077 C 682.08,329.265 688.904,329.203 694.892,330.585 C 698.323,331.376 698.092,327.993 698.092,325.723 L 691.072,317.809 C 681.279,306.772 669.539,293.392 669.539,277.653 C 669.539,266.837 673.608,256.752 676.667,246.411 C 677.316,237.175 673.867,229.461 663.817,227.611 C 647.427,224.591 631.375,237.549 620.565,248.357 C 618.839,248.529 617.112,248.701 615.385,248.872 C 607.093,257.899 598.803,266.924 590.512,275.949 C 588.136,279.145 585.76,282.341 583.385,285.539 C 581.008,288.735 578.633,291.931 576.257,295.128 C 570.517,301.703 560.72,298.751 552.843,297.687 C 536.341,295.457 520.532,291.903 504.357,288 L 497.103,286.769 C 494.769,285.539 492.308,285.539 489.847,285.539 L 462.769,285.539 L 465.231,280.615 C 475.077,273.231 475.077,273.231 477.539,273.231 L 477.539,270.769 L 480,270.769 L 480,268.308 L 482.461,268.308 L 482.461,265.847 C 483.692,265.847 484.923,265.847 486.153,265.847 C 487.385,265.847 487.385,265.847 487.385,265.847 L 497.488,263.128 C 500.599,260.752 503.709,258.376 506.82,256 C 501.161,256 495.504,256 489.847,256 C 489.847,257.231 489.847,258.461 489.847,259.692 C 489.847,260.917 489.84,260.923 488.615,260.923 C 487.385,260.923 487.385,260.923 487.385,260.923 L 472.615,265.847 C 470.931,271.584 467.717,274.065 462.512,275.949 C 455.583,283.344 447.6,283.077 437.931,283.077 L 439.272,280.615 C 440.615,280.615 440.615,278.153 440.615,278.153 C 449.736,263.077 461.925,251.447 474.087,238.769 L 475.813,238.769 C 475.077,238.769 477.539,238.769 477.539,238.769 L 482.461,233.847 L 484.923,233.847 C 488.615,230.155 492.363,227.077 496.56,224 C 491.86,224 487.161,224 482.461,224 C 482.461,225.231 482.461,226.461 482.461,227.692 C 482.461,228.917 482.456,228.923 481.231,228.923 C 480,228.923 480,228.923 480,228.923 L 477.539,228.923 C 472.481,233.98 467.461,238.928 462.019,243.564 C 457.108,247.747 455.816,248.615 454.505,248.615 C 452.923,248.615 452.923,248.615 452.923,248.615 L 452.923,251.077 C 452.103,251.077 451.281,251.077 450.461,251.077 L 450.461,252.308 C 450.461,253.539 450.461,253.539 450.461,253.539 C 445.539,265.847 445.539,265.847 440.615,268.308 C 439.527,272.053 436.884,276.392 434.743,277.949 C 429.225,281.963 428.751,272.109 427.832,268.308 L 429.3,268.308 C 430.769,268.308 430.769,268.308 430.769,268.308 C 433.336,263.033 435.849,256.125 436.357,252.956 C 437.099,248.319 439.393,245.823 443.077,243.435 C 444.54,239.773 446.004,236.112 447.467,232.452 C 454.769,227.613 461.456,223 465.081,214.996 C 465.231,214.153 467.692,211.692 467.692,209.231 L 467.692,206.769 C 468.923,206.769 470.153,206.769 471.385,206.769 C 472.615,206.769 472.615,206.769 472.615,206.769 L 480,196.923 L 472.615,199.385 L 465.231,204.308 C 458.001,207.073 452.367,210.364 448,216.615 C 443.369,223.243 440.956,230.16 438.804,237.907 C 434.313,240.792 432.864,242.387 430.769,247.513 C 430.769,248.615 428.308,251.077 428.308,253.539 C 428.308,262.881 424.219,271.799 420.923,280.357 C 420.923,275.607 420.923,270.855 420.923,266.104 L 419.417,271.636 C 417.823,277.495 412.376,278.872 414.425,271.508 C 416,270.769 416,268.308 416,265.847 C 416,257.751 419.825,250.687 423.385,243.692 L 424.615,243.692 C 425.847,243.692 425.847,243.692 425.847,243.692 L 428.308,243.692 L 428.308,241.231 C 430.844,230.817 433.841,221.412 440.744,212.923 C 444.739,208.009 447.52,202.763 450.165,197.072 L 452.775,195.767 C 452.923,194.461 455.385,194.461 455.385,194.461 L 460.308,187.077 Z M 647.385,236.308 C 643.624,238.095 640.588,240.084 636.308,243.564 C 632.037,247.036 627.601,250.231 623.027,253.281 C 620.479,254.188 617.932,255.093 615.385,256 L 615.385,257.231 C 615.385,258.461 615.385,258.461 615.385,258.461 L 610.461,263.385 L 605.539,268.308 L 600.615,273.231 L 598.153,275.692 C 595.961,277.885 593.453,279.391 590.769,280.872 C 589.224,284.696 587.68,288.52 586.136,292.344 L 583.529,293.993 C 581.285,295.413 576.343,302.769 582.153,302.769 C 583.385,302.769 585.847,302.769 585.847,302.769 C 603.077,310.153 603.077,310.153 608,312.615 L 610.461,312.615 L 617.847,315.077 C 625.231,315.077 625.231,315.077 627.692,315.077 C 630.153,320 630.153,320 640,322.461 L 652.308,324.923 L 652.308,322.461 L 654.769,322.461 L 657.231,327.385 L 681.847,324.923 L 692.009,327.725 C 683.177,318 675.185,307.069 669.529,295.223 C 664.588,284.875 661.964,268.343 665.847,257.103 C 667.077,256 667.077,253.539 667.077,253.539 L 667.077,238.769 Z M 329.847,455.385 C 320.217,451.987 325.529,467.817 326.544,471.836 C 327.385,475.077 329.847,482.461 329.847,484.923 L 337.36,511.749 C 346.987,522.787 357.747,534.107 369.36,543.009 C 371.996,545.031 375.261,546.081 376.615,545.343 C 376.615,544 379.077,544 379.077,544 C 384.32,538.757 388.94,533.476 393.451,527.62 C 396.56,516.901 399.081,506.235 400.223,495.085 C 401.113,486.384 400.697,478.935 396.841,471.22 C 393.467,469.224 390.093,467.227 386.719,465.231 L 382.897,464 C 381.539,462.769 379.077,462.769 379.077,462.769 C 373.281,456.412 371.532,455.756 366.013,457.868 L 359.643,460.308 C 363.512,460.308 358.629,459.433 356.881,458.917 C 350.864,457.141 354.071,463.009 355.193,466.251 L 349.543,461.541 C 344.777,457.571 343.611,457.395 342.1,460.416 C 340.733,463.148 339.941,463.269 338.769,460.923 C 337.231,460.308 337.231,457.847 337.231,457.847 L 332.308,457.847 C 331.487,458.256 330.667,458.667 329.847,459.077 L 329.847,457.231 C 329.847,457.847 329.847,455.385 329.847,455.385 Z M 384,337.231 L 385.641,329.847 C 376.068,329.847 366.496,329.847 356.923,329.847 L 356.923,331.077 C 356.923,332.308 356.923,332.308 356.923,332.308 C 340.953,332.308 324.961,333.137 309.896,338.591 C 304.045,340.708 298.485,342.936 292.923,345.717 C 289.003,347.677 283.455,349.869 280.595,350.589 C 276.511,351.616 275.955,352.701 278.004,355.641 C 278.153,356.923 280.615,359.385 280.615,359.385 L 283.077,369.231 L 285.311,380.308 C 288.613,380.308 287.703,387.463 285.175,388.308 C 281.575,389.511 287.209,391.349 289.231,392.615 C 292.475,394.647 297.844,396.917 301.164,397.661 C 315.648,400.911 327.953,388.353 336.973,379.333 C 339.564,377.975 342.153,376.615 344.744,375.256 C 352.448,371.213 358.855,362.275 364.744,356.025 C 369.087,351.417 372.521,347.893 378.153,345.077 C 381.369,343.469 384,341.047 384,339.692 C 384,339.692 384,337.231 384,337.231 Z "/>
		<path id="dp_path003" fill="black" fill-rule="evenodd" d="M 920.615,435.692 L 918.153,435.692 L 918.153,438.153 C 923.077,448 923.077,448 925.539,452.923 C 928.247,462.541 930.461,473.873 930.461,478.107 C 930.461,484.539 929.4,485.953 923.995,486.725 C 920.439,487.235 909.859,485.375 900.483,482.595 C 891.161,479.829 882.527,477.084 873.847,472.744 C 867.447,469.544 861.109,466.769 854.411,464.257 C 836.056,457.375 817.469,450.36 799.872,441.717 C 797.539,440.615 795.077,438.153 792.615,438.153 L 790.153,438.153 L 790.153,440.615 L 824.357,457.589 C 831.743,461.281 839.128,464.973 846.512,468.667 C 858.072,474.447 870.825,478.34 883.292,481.688 C 887.275,482.757 891.669,484.459 893.059,485.469 C 900.205,490.667 911.907,492.053 920.357,494.512 C 923.961,494.869 926.947,494.065 930.248,492.415 C 934.531,490.273 935.385,487.575 935.385,476.179 C 935.385,466.803 935.031,453.065 928,445.667 C 926.647,444.243 924.431,441.415 923.077,439.385 C 923.077,438.153 920.615,435.692 920.615,435.692 Z "/>
		<path id="dp_path004" fill="black" fill-rule="evenodd" d="M 910.769,329.847 C 913.255,328.087 916.377,323.655 917.707,320 C 920.101,313.413 923.772,309.368 928.148,304.095 C 931.617,299.913 933.861,296.219 936.025,291.235 C 939.745,282.661 943.955,267.825 936.055,260.491 C 925.413,250.609 908.239,259.771 897.103,264.615 C 896,265.847 891.077,268.308 888.615,268.308 L 888.615,270.769 L 891.077,270.769 C 895.508,270.769 900.783,269.473 902.799,267.888 C 907.18,264.447 912.544,263.385 918.153,263.385 C 922.567,261.793 928.079,261.401 930.704,262.491 C 937.863,265.46 936.599,281.576 932.923,286.897 C 932.923,288 930.461,290.461 930.461,290.461 C 927.913,295.559 925.151,300.471 924.324,301.377 C 919.707,306.439 915.607,312.235 913.256,318.701 C 912.039,322.048 910.427,325.371 909.675,326.085 C 908.308,327.385 908.308,327.385 908.308,327.385 L 908.308,329.847 Z "/>
		<path id="dp_path005" fill="black" fill-rule="evenodd" d="M 118.153,347.077 L 113.231,356.923 L 115.692,366.769 C 120.876,370.375 130.405,374.848 135.272,368.155 C 138.524,363.683 137.847,357.229 137.847,352 C 132.923,347.077 132.923,347.077 123.077,347.077 C 120.615,347.077 120.615,347.077 118.153,347.077 Z M 135.385,359.385 C 133.993,354.717 131,350.996 128.055,350.272 C 125.317,349.597 123.077,349.711 123.077,350.523 C 123.077,352 123.077,352 123.077,352 C 118.153,356.923 118.153,356.923 118.153,361.847 C 122.457,366.423 130.891,368.372 134.003,362.148 C 135.385,361.847 135.385,359.385 135.385,359.385 Z "/>
		<path id="dp_path006" fill="black" fill-rule="evenodd" d="M 140.308,332.308 L 132.923,334.769 L 142.769,337.231 L 142.769,339.692 C 147.692,344.615 147.692,344.615 147.692,347.077 C 151.657,358.049 146.801,366.029 141.235,375.184 C 132.695,378.727 120.807,382.004 112.784,375.385 C 110.769,374.153 108.308,371.692 108.308,371.692 C 103.385,366.769 103.385,366.769 100.923,352 L 100.923,349.539 L 98.4613,349.539 C 98.4613,358.655 99.3587,366.589 104.271,374.18 C 113.992,382.78 126.804,387.06 139.352,380.785 C 150.113,375.405 152.615,366.337 152.615,354.864 C 152.615,344.917 151.495,341.755 146.461,337.504 C 145.231,337.231 142.769,334.769 140.308,332.308 Z "/>
		<path id="dp_path007" fill="black" fill-rule="evenodd" d="M 649.847,425.847 L 647.385,425.847 L 647.385,428.308 C 655.297,428.308 662.008,429.341 669.673,431.093 C 668.228,436.395 661.613,437.461 656.911,439.737 C 654.769,440.615 647.385,443.077 644.923,445.539 L 644.923,448 L 647.385,448 L 664.036,441.195 C 668.619,439.608 672.584,437.933 673.889,432.633 C 675.131,427.591 672.917,426.587 668.719,425.847 C 662.427,425.847 656.137,425.847 649.847,425.847 Z "/>
		<path id="dp_path008" fill="black" fill-rule="evenodd" d="M 868.923,278.153 C 856.615,280.615 856.615,280.615 846.769,288 L 846.769,290.461 L 849.231,290.461 L 871.385,280.615 L 871.385,278.153 Z "/>
		<path id="dp_path009" fill="#010101" fill-rule="evenodd" d="M 893.539,344.615 L 883.949,351.743 C 882.164,353.048 880.379,354.353 878.593,355.659 L 876.22,362.444 C 876.308,364.308 873.847,366.769 873.847,369.231 C 873.847,381.107 875.948,390.849 881.231,401.231 L 882.461,401.231 C 883.692,401.231 883.692,401.231 883.692,401.231 L 886.153,401.231 L 886.153,398.769 C 877.279,386.129 875.429,362.484 889.265,352.421 C 890.981,351.175 892.667,349.935 894.277,348.553 C 893.539,347.077 896,347.077 896,347.077 L 896,344.615 Z "/>
		<path id="dp_path010" fill="#030303" fill-rule="evenodd" d="M 905.847,327.385 C 900.923,337.231 900.923,337.231 893.539,344.615 L 896,344.615 L 896,347.077 C 905.847,337.231 905.847,337.231 910.769,329.847 L 908.308,329.847 L 908.308,327.385 Z "/>
		<path id="dp_path011" fill="#030503" fill-rule="evenodd" d="M 905.847,416 L 903.385,416 L 903.385,418.461 L 905.847,425.847 C 913.231,433.231 913.231,433.231 918.153,438.153 L 918.153,435.692 L 920.615,435.692 C 913.231,425.847 913.231,425.847 905.847,416 Z "/>
		<path id="dp_path012" fill="#040404" fill-rule="evenodd" d="M 802.461,312.615 C 799.612,312.757 793.52,315.525 788.923,318.769 C 781.667,323.889 773.796,325.984 765.281,327.643 L 758.025,332.436 C 755.692,334.769 753.231,337.231 750.769,337.231 L 753.231,337.231 L 753.231,339.692 C 769.636,336.724 782.545,327.496 797.047,320.247 C 800.025,318.757 803.015,316.985 803.692,316.308 C 804.923,315.077 804.923,315.077 804.923,315.077 L 804.923,312.615 Z "/>
		<path id="dp_path013" fill="#040404" fill-rule="evenodd" d="M 846.769,288 L 829.539,297.847 L 829.539,300.308 L 832,300.308 C 839.385,297.847 839.385,297.847 849.231,290.461 L 846.769,290.461 Z "/>
		<path id="dp_path014" fill="#050505" fill-rule="evenodd" d="M 775.385,430.769 L 772.923,430.769 L 772.923,433.231 L 790.153,440.615 L 790.153,438.153 L 792.615,438.153 L 792.615,435.692 L 790.153,435.692 C 777.847,430.769 777.847,430.769 775.385,430.769 Z "/>
		<path id="dp_path015" fill="#070605" fill-rule="evenodd" d="M 829.539,297.847 C 821.156,298.263 813.921,304.097 807.256,309.052 C 804.923,310.153 802.461,312.615 802.461,312.615 L 804.923,312.615 L 804.923,315.077 L 832,300.308 L 829.539,300.308 Z "/>
		<path id="dp_path016" fill="#030207" fill-rule="evenodd" d="M 123.077,327.385 L 113.231,332.308 C 110.416,335.123 107.756,337.692 104.487,339.949 C 101.731,341.853 100.781,342.821 99.692,345.975 C 98.4613,347.077 98.4613,349.539 98.4613,349.539 L 100.923,349.539 L 100.923,352 L 103.385,352 C 108.308,339.692 108.308,339.692 118.153,337.231 C 125.539,334.769 125.539,334.769 132.923,334.769 L 140.308,332.308 C 134.759,329.929 128.977,329.847 123.077,329.847 L 123.077,328.615 C 123.077,327.385 123.077,327.385 123.077,327.385 Z "/>
		<path id="dp_path017" fill="#080807" fill-rule="evenodd" d="M 888.615,268.308 L 868.923,278.153 L 871.385,278.153 L 871.385,280.615 L 881.488,277.896 L 886.283,275.705 L 891.077,273.515 L 891.077,272.143 C 891.077,270.769 891.077,270.769 891.077,270.769 L 888.615,270.769 Z "/>
		<path id="dp_path018" fill="#090909" fill-rule="evenodd" d="M 755.692,342.153 L 755.692,344.615 L 753.231,344.615 C 756.987,348.372 760.832,351.743 764.965,355.065 C 770.125,366.957 770.461,378.56 770.461,391.385 L 769.231,391.385 C 768,391.385 768,391.385 768,391.385 C 764.731,399.547 759.656,408.451 756.724,411.173 C 751.679,415.859 750.721,415.931 738.901,412.499 C 730.633,410.099 722.429,408.615 713.847,408.615 L 679.385,408.615 C 662.423,408.615 642.735,412.043 627.435,419.692 C 621.081,422.869 614.667,423.497 607.743,423.643 C 595.607,427.659 583.471,431.675 571.333,435.692 C 555.32,439.556 539.675,443.103 523.333,445.281 C 496.341,448.88 469.16,450.381 442.005,452.388 C 440.721,451.745 439.437,451.104 438.153,450.461 L 438.153,451.692 C 438.153,452.923 438.153,452.923 438.153,452.923 C 445.539,455.385 445.539,455.385 452.923,455.385 C 480.624,455.385 507.839,451.619 535.147,447.524 L 538.343,453.916 C 540.1,457.432 543.2,462.523 545.231,465.231 C 546.461,467.692 548.923,470.153 548.923,470.153 L 551.385,470.153 L 551.385,467.692 L 541.539,448 L 546.461,450.461 L 548.923,450.461 C 550.397,444.108 555.504,446.921 560.56,445.139 C 566.412,443.076 571.028,442.507 577.065,444.033 C 579.147,444.56 581.153,443.873 581.527,442.508 C 581.899,441.141 583.532,440.689 585.157,441.501 C 588.023,442.935 588.713,440.769 589.317,438.552 C 602.941,432.64 616.929,427.944 631.376,424.403 C 634.613,423.609 638.917,424.164 640.939,425.635 C 642.961,427.104 645.239,428.308 646,428.308 C 647.385,428.308 647.385,428.308 647.385,428.308 L 647.385,425.847 L 649.847,425.847 L 640.257,420.923 C 647.908,418.373 655.507,417.241 663.513,416 C 667.077,416 674.461,413.539 679.385,413.539 C 688.869,409.473 701.252,411.077 711.385,411.077 L 711.385,412.308 C 711.385,413.539 711.385,413.539 711.385,413.539 C 719.649,413.539 728.627,414.647 731.333,416 C 736.509,418.588 741.84,420.323 747.333,422.153 C 753.427,424.185 759.98,427.005 761.897,428.423 C 763.816,429.84 767.081,431.503 769.153,432.115 C 770.461,433.231 772.923,433.231 772.923,433.231 L 772.923,430.769 L 775.385,430.769 L 770.461,425.847 L 753.827,420.625 C 756.089,419.084 758.352,417.541 760.615,416 L 761.847,414.769 C 763.077,413.539 763.077,413.539 763.077,413.539 L 768,406.153 C 775.823,394.996 775.385,380.005 775.385,366.769 L 772.923,359.385 L 772.923,356.923 L 768,352 L 763.077,347.077 L 760.615,342.153 Z "/>
		<path id="dp_path019" fill="#121611" fill-rule="evenodd" d="M 644.923,445.539 C 638.605,451.113 632.087,459.544 630.436,464.273 C 628.785,469.003 625.831,475.801 623.872,479.38 C 621.912,482.959 620.308,491.82 620.308,499.072 C 620.308,508.972 620.175,520.6 611.751,526.727 C 603.983,532.376 595.917,523.755 591.359,518.453 C 584.893,510.935 578.741,503.181 572.615,495.385 C 570.753,493.016 568.539,489.692 567.692,488 C 566.153,487.385 566.153,484.923 566.153,484.923 C 561.231,480 561.231,480 558.769,475.077 C 553.847,470.153 553.847,470.153 551.385,467.692 L 551.385,470.153 L 548.923,470.153 C 551.472,475.251 554.233,480.163 555.061,481.069 C 561.008,487.589 566.135,494.863 571.077,502.153 C 580.017,513.389 589.363,524.443 600.816,533.216 C 611.32,541.263 620.923,526.732 623.555,517.732 C 622.769,516.923 625.231,514.461 625.231,512 L 625.231,484.923 L 627.692,484.923 C 630.517,473.328 635.152,461.023 643.437,452.201 C 644.923,450.461 647.385,448 647.385,448 L 644.923,448 Z "/>
		<path id="dp_path020" fill="#6e6011" fill-rule="evenodd" d="M 147.692,347.077 L 145.231,354.461 L 145.231,352 C 143.18,352 141.128,352 139.077,352 C 137.847,352 137.847,352 137.847,352 C 137.847,357.229 138.524,363.683 135.272,368.155 C 130.405,374.848 120.876,370.375 115.692,366.769 L 108.308,371.692 C 108.308,371.692 110.769,374.153 112.784,375.385 C 120.807,382.004 132.695,378.727 141.235,375.184 C 146.801,366.029 151.657,358.049 147.692,347.077 Z "/>
		<path id="dp_path021" fill="#161a13" fill-rule="evenodd" d="M 349.265,412.811 L 348.525,408.615 C 345.936,408.615 344.836,409.359 345.725,412.368 C 346.336,414.432 344.8,417.139 342.313,418.381 C 337.459,420.809 336.445,426.112 335.279,430.853 C 341.256,429.224 350.397,419.229 349.265,412.811 Z "/>
		<path id="dp_path022" fill="#181818" fill-rule="evenodd" d="M 886.153,398.769 L 886.153,401.231 L 883.692,401.231 L 891.077,408.615 L 903.385,418.461 L 903.385,416 L 905.847,416 C 893.539,403.692 893.539,403.692 886.153,398.769 Z "/>
		<path id="dp_path023" fill="#1f2f19" fill-rule="evenodd" d="M 321.564,296.109 C 323.135,289.728 317.251,287.856 312.615,285.539 L 312.931,287.105 C 313.376,289.317 315.117,290.141 316.873,291.521 C 320.039,294.009 319.957,294.853 316.239,298.144 C 313.103,300.917 312.732,302.509 314.837,304.163 C 316.411,305.4 316.977,308.491 316.097,311.033 C 314.847,314.649 315.421,315.336 318.739,314.188 C 324.197,312.299 321.22,305.571 320.228,301.539 C 320.428,301.539 321.444,296.597 321.564,296.109 Z "/>
		<path id="dp_path024" fill="#1b1b1b" fill-rule="evenodd" d="M 128,359.385 L 118.153,361.847 C 122.457,366.423 130.891,368.372 134.003,362.148 C 135.385,361.847 135.385,359.385 135.385,359.385 C 133.333,359.385 131.281,359.385 129.231,359.385 C 128,359.385 128,359.385 128,359.385 Z "/>
		<path id="dp_path025" fill="#212e1c" fill-rule="evenodd" d="M 263.385,307.692 L 260.923,307.692 L 260.923,310.153 C 264.285,319.907 268.289,329.171 273.231,338.193 L 273.231,342.636 C 273.231,344.615 273.231,347.077 273.231,347.077 C 273.231,347.077 273.231,347.077 274.461,347.077 C 275.692,347.077 276.923,347.077 278.153,347.077 L 278.153,344.615 C 275.389,333.845 270.181,324.177 265.975,313.975 C 265.847,312.615 263.385,310.153 263.385,307.692 Z "/>
		<path id="dp_path026" fill="#293b22" fill-rule="evenodd" d="M 425.847,243.692 C 425.847,243.692 425.847,243.692 424.615,243.692 L 423.385,243.692 C 419.825,250.687 416,257.751 416,265.847 C 420.923,256 420.923,256 423.385,253.539 Z "/>
		<path id="dp_path027" fill="#2a3d23" fill-rule="evenodd" d="M 435.133,301.409 L 434.573,297.847 C 433.305,297.847 432.037,297.847 430.769,297.847 L 433.168,302.643 C 434.797,305.901 434.689,308.129 432.832,309.588 C 430.891,311.113 431.207,312.608 433.921,314.74 C 439.484,319.111 429.701,321.003 426.104,322.461 C 429.153,322.461 431.957,322.305 434.976,321.797 C 440.129,320.929 435.692,312.377 435.692,308.667 C 435.692,306.176 435.519,303.868 435.133,301.409 Z "/>
		<path id="dp_path028" fill="#8e7e25" fill-rule="evenodd" d="M 100.923,352 C 103.385,366.769 103.385,366.769 108.308,371.692 L 115.692,366.769 L 113.231,356.923 L 103.385,359.385 L 103.385,354.461 L 103.385,352 Z "/>
		<path id="dp_path029" fill="#2d3f26" fill-rule="evenodd" d="M 253.539,398.769 C 257.564,386.483 258.461,374.349 258.461,361.589 C 256.82,355.196 255.18,348.804 253.539,342.411 C 250.648,351.553 253.749,360.457 256,369.488 C 256,376.585 255.536,383.393 253.539,390.283 C 253.539,391.385 251.077,396.308 251.077,398.769 Z "/>
		<path id="dp_path030" fill="#2d3328" fill-rule="evenodd" d="M 391.385,452.923 C 391.385,452.923 391.385,452.923 391.385,454.153 L 391.385,455.385 L 410.667,455.385 C 421.272,455.385 432.533,456.492 435.692,457.847 L 452.923,457.847 L 452.923,455.385 C 445.539,455.385 445.539,455.385 438.153,452.923 Z "/>
		<path id="dp_path031" fill="#314429" fill-rule="evenodd" d="M 253.539,297.847 C 238.769,297.847 238.769,297.847 231.385,300.308 C 250.209,300.308 253.804,300.98 256.767,305.055 L 260.22,309.803 L 260.571,309.979 C 260.923,310.153 260.923,310.153 260.923,310.153 L 260.923,307.692 L 263.385,307.692 Z "/>
		<path id="dp_path032" fill="#314529" fill-rule="evenodd" d="M 76.648,368.163 L 71.8667,362.425 C 70.8853,362.232 69.904,362.039 68.9227,361.847 C 70.5053,365.011 72.088,368.176 73.6707,371.341 C 78.484,374.841 83.2933,377.745 89.092,379.443 C 93.3133,380.677 96.8667,381.199 100.667,379.077 L 91.048,376.488 C 85.7573,375.065 79.2787,371.319 76.648,368.163 Z "/>
		<path id="dp_path033" fill="#314629" fill-rule="evenodd" d="M 450.461,253.539 L 438.153,263.385 L 433.231,270.769 C 435.692,270.769 435.692,270.769 440.615,268.308 C 445.539,265.847 445.539,265.847 450.461,253.539 Z "/>
		<path id="dp_path034" fill="#314929" fill-rule="evenodd" d="M 292.923,317.539 C 292.923,313.068 292.923,308.599 292.923,304.128 C 292.923,296.373 290.125,292.523 282.716,289.957 C 283.648,293.376 284.711,294.383 287.632,296.677 C 291.151,299.443 291.004,300.043 286.213,302.496 C 281.009,305.161 280.996,305.293 285.667,307.692 C 288.304,309.047 290.461,311.815 290.461,313.847 C 290.461,315.077 290.461,317.539 290.461,317.539 Z "/>
		<path id="dp_path035" fill="#2c352a" fill-rule="evenodd" d="M 482.461,233.847 C 482.461,248.615 482.461,248.615 487.385,258.461 L 487.385,260.923 C 487.385,260.923 487.385,260.923 488.615,260.923 C 489.84,260.923 489.847,260.917 489.847,259.692 C 489.847,258.461 489.847,257.231 489.847,256 C 484.923,241.231 484.923,241.231 484.923,233.847 Z "/>
		<path id="dp_path036" fill="#33472a" fill-rule="evenodd" d="M 472.615,265.847 C 467.203,267.772 463.529,269.739 459.077,273.36 C 454.869,276.78 452.791,278.153 451.821,278.153 C 450.461,278.153 450.461,278.153 450.461,278.153 L 440.615,280.615 L 440.615,278.153 C 440.615,278.153 440.615,280.615 439.272,280.615 L 437.931,283.077 C 447.6,283.077 455.583,283.344 462.512,275.949 C 467.717,274.065 470.931,271.584 472.615,265.847 Z "/>
		<path id="dp_path037" fill="#344b2b" fill-rule="evenodd" d="M 510.101,309.717 C 507.46,307.643 504.264,306.675 505.847,311.256 C 506.575,313.367 507.269,315.473 507.897,317.615 C 508.348,319.152 507.088,321.225 505.093,322.223 C 499.975,324.781 506.64,327.881 509.281,329.847 C 508.82,333.313 510.705,322.453 510.899,321.409 C 511.993,315.467 511.687,310.963 510.101,309.717 Z "/>
		<path id="dp_path038" fill="#35492d" fill-rule="evenodd" d="M 290.461,317.539 C 288.195,324.205 284.601,327.481 278.411,329.847 L 282.385,330.667 C 287.755,331.775 292.923,327.344 292.923,321.935 C 292.923,320 292.923,317.539 292.923,317.539 Z "/>
		<path id="dp_path039" fill="#38502e" fill-rule="evenodd" d="M 380.979,308.795 L 380.42,305.231 C 375.46,305.231 378.236,310.596 379.219,313.847 C 377.644,313.847 379.271,314.892 379.956,315.692 C 382.217,318.331 381.109,309.621 380.979,308.795 Z "/>
		<path id="dp_path040" fill="#30372f" fill-rule="evenodd" d="M 472.615,206.769 C 472.615,206.769 472.615,206.769 471.385,206.769 C 470.153,206.769 468.923,206.769 467.692,206.769 L 467.692,209.231 C 472.871,212.091 479.289,221.404 479.872,227.564 C 480,228.923 480,228.923 480,228.923 C 480,228.923 480,228.923 481.231,228.923 C 482.456,228.923 482.461,228.917 482.461,227.692 C 482.461,226.461 482.461,225.231 482.461,224 C 477.539,216.615 477.539,216.615 472.615,206.769 Z "/>
		<path id="dp_path041" fill="#363c30" fill-rule="evenodd" d="M 384,337.231 L 385.641,329.847 C 376.068,329.847 366.496,329.847 356.923,329.847 L 356.923,331.077 C 356.923,332.308 356.923,332.308 356.923,332.308 L 384,332.308 Z "/>
		<path id="dp_path042" fill="#3a4b32" fill-rule="evenodd" d="M 598.153,354.461 C 596.8,348.904 596.061,342.043 596.513,339.212 C 596.964,336.381 596.411,334.283 595.281,334.547 C 591.681,335.389 590.769,343.533 590.769,347.077 C 597.243,351.837 597.413,352.375 593.155,354.564 L 588.565,356.923 C 590.205,356.923 591.847,356.923 593.488,356.923 L 595.821,355.692 C 595.692,354.461 598.153,354.461 598.153,354.461 Z "/>
		<path id="dp_path043" fill="#343733" fill-rule="evenodd" d="M 472.615,199.385 C 464.224,197.739 462.769,196.531 462.769,191.211 C 462.769,185.619 465.821,182.708 469.896,179.692 C 465.88,180.336 461.863,180.98 457.847,181.624 L 457.847,183.12 C 457.847,184.615 457.847,184.615 457.847,184.615 L 460.308,187.077 L 455.385,194.461 L 465.231,204.308 Z "/>
		<path id="dp_path044" fill="#3a4533" fill-rule="evenodd" d="M 388.923,384 C 384.868,384.947 383.647,386.535 384.68,389.52 C 386.184,393.867 382.539,395.084 379.333,396.308 L 383.719,397.047 C 389.401,398.004 388.103,390.505 388.103,386.872 L 389.744,385.436 C 391.385,384 391.385,384 391.385,384 Z "/>
		<path id="dp_path045" fill="#3e5634" fill-rule="evenodd" d="M 245.128,375.944 C 246.112,370.597 245.421,367.324 241.231,364.308 L 242.668,370.331 C 243.459,373.644 243.193,377.609 242.077,379.144 C 239.241,383.044 240.999,389.533 241.551,393.947 L 243.932,392.075 C 245.241,391.047 245.724,388.751 245.003,386.973 C 244.283,385.197 244.339,380.233 245.128,375.944 Z "/>
		<path id="dp_path046" fill="#404d38" fill-rule="evenodd" d="M 579.655,379.252 C 580.907,373.412 580.611,370.301 578.764,369.872 C 577.244,369.52 576.553,370.396 577.231,371.821 C 579.404,376.393 575.397,384.472 574.013,389.017 C 575.269,388.675 576.527,388.332 577.783,387.989 Z "/>
		<path id="dp_path047" fill="#435e38" fill-rule="evenodd" d="M 384,327.385 C 375.148,323.591 363.908,324.923 354.461,324.923 L 354.461,326.153 C 354.461,327.385 354.461,327.385 354.461,327.385 Z "/>
		<path id="dp_path048" fill="#425139" fill-rule="evenodd" d="M 723.692,379.077 C 725.447,372.244 727.312,365.46 729.263,358.681 C 727.592,360.456 726.195,362.463 724.712,364.395 C 722.707,367.009 721.657,369.721 722.38,370.42 C 723.692,371.692 723.692,371.692 723.692,371.692 C 723.692,373.744 723.692,375.795 723.692,377.847 C 723.692,379.077 723.692,379.077 723.692,379.077 Z "/>
		<path id="dp_path049" fill="#414b3a" fill-rule="evenodd" d="M 393.103,412.179 L 390.153,408.615 C 388.923,408.615 387.692,408.615 386.461,408.615 L 388.795,413.409 C 390.077,416.047 391.257,419.947 391.416,422.075 C 391.595,424.464 392.717,425.151 394.347,423.871 C 398.492,420.613 395.743,415.371 393.103,412.179 Z "/>
		<path id="dp_path050" fill="#424d3a" fill-rule="evenodd" d="M 713.847,408.615 C 703.735,404.283 690.201,406.153 679.385,406.153 L 679.385,407.385 C 679.385,408.615 679.385,408.615 679.385,408.615 Z "/>
		<path id="dp_path051" fill="#46613a" fill-rule="evenodd" d="M 201.847,354.461 C 202.489,357.659 203.603,358.479 206.189,360.512 C 208.819,362.577 209.108,364.052 207.183,365.565 C 203.253,368.652 206.769,375.112 206.769,379.077 C 209.86,376.843 211.668,373.669 210.801,372 C 209.247,369.004 209.484,367.477 210.052,364.12 C 210.695,360.316 207.836,354.461 203.301,354.461 C 201.847,354.461 201.847,354.461 201.847,354.461 Z "/>
		<path id="dp_path052" fill="#49653d" fill-rule="evenodd" d="M 251.077,398.769 C 247.385,403.439 243.632,407.601 239.32,411.704 C 233.067,417.655 226.337,421.276 218.725,425.407 C 214.153,428.308 206.769,430.769 204.308,433.231 C 206.769,433.231 206.769,433.231 214.153,433.231 L 211.949,430.769 L 224.759,424.916 C 235.105,420.187 246.663,412.52 251.923,402 C 253.539,401.231 253.539,398.769 253.539,398.769 Z "/>
		<path id="dp_path053" fill="#46553e" fill-rule="evenodd" d="M 599.632,376.795 C 597.616,375.329 595.719,374.153 593.231,374.153 L 595.856,377.919 C 597.301,379.989 597.855,382.816 597.088,384.201 C 594.473,388.917 594.288,397.108 598.153,400.973 L 600.708,390.204 C 602.789,381.429 602.591,378.947 599.632,376.795 Z "/>
		<path id="dp_path054" fill="#485a3e" fill-rule="evenodd" d="M 551.385,347.077 L 544.257,349.539 L 548.067,351.508 C 550.163,352.591 551.212,354.807 550.4,356.431 C 548.923,356.923 548.923,359.385 548.923,359.385 C 551.385,369.231 551.385,369.231 546.461,376.615 C 551.601,375.404 552.639,373.516 553.387,364.015 C 553.869,357.868 553.617,351.543 552.825,349.957 C 551.385,349.539 551.385,347.077 551.385,347.077 Z "/>
		<path id="dp_path055" fill="#495b3f" fill-rule="evenodd" d="M 423.385,253.539 C 420.923,256 420.923,256 416,265.847 C 416,268.308 416,270.769 414.425,271.508 C 412.376,278.872 417.823,277.495 419.417,271.636 L 420.923,266.104 C 420.923,270.855 420.923,275.607 420.923,280.357 C 424.219,271.799 428.308,262.881 428.308,253.539 L 423.385,256 Z "/>
		<path id="dp_path056" fill="#4c6940" fill-rule="evenodd" d="M 201.847,379.077 C 204.665,390.888 204.587,391.232 198.495,393.74 L 192.257,396.308 C 197.089,397.255 201.147,397.495 205.197,393.911 C 210.907,388.86 206.769,384.895 206.769,379.077 C 204.308,379.077 204.308,379.077 201.847,379.077 Z "/>
		<path id="dp_path057" fill="#4d6a40" fill-rule="evenodd" d="M 217.333,413.628 C 220.199,411.437 220.22,410.597 217.461,408.577 C 215.156,406.888 214.025,407.131 213.729,409.377 C 213.201,413.393 207.789,414.511 204.64,415.6 C 204.215,417.163 203.788,418.724 203.363,420.285 C 200.481,421.319 197.6,422.352 194.719,423.385 C 204.083,425.396 210.304,419.005 217.333,413.628 Z "/>
		<path id="dp_path058" fill="#414141" fill-rule="evenodd" d="M 135.385,359.385 C 133.993,354.717 131,350.996 128.055,350.272 C 125.317,349.597 123.077,349.711 123.077,350.523 C 123.077,352 123.077,352 123.077,352 L 128,354.461 L 128,359.385 C 128,359.385 128,359.385 129.231,359.385 C 131.281,359.385 133.333,359.385 135.385,359.385 Z "/>
		<path id="dp_path059" fill="#4d5f42" fill-rule="evenodd" d="M 432.511,364.305 C 431.323,359.481 427.56,358.168 423.385,356.923 L 427.221,361.773 C 430.795,366.291 430.635,366.799 424.889,369.159 L 418.719,371.692 C 422.244,371.692 425.229,371.323 428.696,370.513 C 432.341,369.664 433.404,367.933 432.511,364.305 Z "/>
		<path id="dp_path060" fill="#4c6542" fill-rule="evenodd" d="M 708.923,344.615 C 717.136,348.135 727.247,347.077 736,347.077 L 736,345.847 C 736,344.615 736,344.615 736,344.615 Z "/>
		<path id="dp_path061" fill="#557f45" fill-rule="evenodd" d="M 430.769,268.308 C 430.769,268.308 430.769,268.308 429.3,268.308 L 427.832,268.308 C 428.751,272.109 429.225,281.963 434.743,277.949 C 436.884,276.392 439.527,272.053 440.615,268.308 C 435.692,270.769 435.692,270.769 433.231,270.769 L 430.769,270.769 Z "/>
		<path id="dp_path062" fill="#4f5b46" fill-rule="evenodd" d="M 546.461,412.449 L 546.461,403.692 C 543.468,403.692 544,404.407 544,407.513 C 544,413.26 541.3,418.364 539.251,423.703 C 544.884,421.753 546.461,418.839 546.461,412.449 Z "/>
		<path id="dp_path063" fill="#526248" fill-rule="evenodd" d="M 640,389.627 C 640,385.179 638.892,380.985 637.539,380.308 C 636.185,379.631 635.631,380.243 636.308,381.667 C 638.536,386.357 638.355,394.477 635.964,399.087 C 634.921,401.099 635.336,401.379 637.195,399.919 C 638.737,398.705 640,394.075 640,389.627 Z "/>
		<path id="dp_path064" fill="#54654a" fill-rule="evenodd" d="M 393.847,379.077 C 393.847,374.455 395.595,369.983 396.815,365.539 C 394.364,365.539 394.361,365.703 393.672,368.227 C 392.939,370.919 392.212,371.279 389.7,372.535 C 388.923,374.153 386.461,374.153 386.461,374.153 L 388.923,384 L 391.385,384 L 393.847,384 C 393.847,382.769 393.847,381.539 393.847,380.308 C 393.847,379.077 393.847,379.077 393.847,379.077 Z "/>
		<path id="dp_path065" fill="#58684e" fill-rule="evenodd" d="M 704,391.243 C 704,386.076 695.969,381.86 698.048,388.743 C 699.785,394.493 693.596,395.147 689.488,396.308 L 696.744,396.308 C 702.427,396.308 704,395.209 704,391.243 Z "/>
		<path id="dp_path066" fill="#658e54" fill-rule="evenodd" d="M 708.923,344.615 C 708.923,344.615 706.461,344.615 706.591,344.615 L 704.257,344.615 C 694.811,341.467 685.779,339.017 675.949,337.231 C 667.129,335.627 658.357,333.909 649.589,332.051 C 639.737,329.137 628.927,327.412 620.565,321.36 C 616.099,318.127 612.091,316.759 606.769,315.205 C 590.748,310.529 575.697,305.071 559.027,302.769 C 520.32,294.392 481.689,287.204 442.104,284.565 C 421.153,283.168 400.333,280.615 379.333,280.615 C 350.951,281.555 322.093,280.976 293.896,284.436 C 280.997,286.02 262.956,287.995 253.539,297.847 L 263.385,307.692 C 263.385,310.153 265.847,312.615 265.975,313.975 C 270.181,324.177 275.389,333.845 278.153,344.615 C 278.153,344.615 280.615,342.153 281.717,342.283 C 283.677,340.999 289.157,338.843 293.896,337.488 L 302.512,335.027 C 309.076,333.385 315.64,331.744 322.204,330.104 L 354.461,327.385 C 354.461,327.385 354.461,327.385 354.461,326.153 L 354.461,324.923 C 363.908,324.923 375.148,323.591 384,327.385 L 388.923,329.847 L 388.923,339.692 C 393.181,331.86 403.828,334.472 411.333,334.769 C 417.899,334.769 424.463,334.769 431.027,334.769 L 439.643,336 C 444.38,336.677 451.301,336.484 455.021,335.572 C 460.44,334.243 461.637,334.707 461.047,337.905 C 460.64,340.1 461.443,343.671 462.829,345.839 C 466.348,351.336 456.996,352.995 453.18,354.461 C 471.251,354.461 489.296,355.921 507.333,356.923 C 512.949,356.923 518.564,356.923 524.179,356.923 C 525.975,356.923 526.624,357.016 528,358.153 C 530.087,359.88 540.991,360.776 541.539,358.153 C 541.965,356.111 548.576,356.059 548.795,358.153 C 548.923,359.385 548.923,359.385 548.923,359.385 C 548.923,359.385 548.923,356.923 550.4,356.431 C 551.212,354.807 550.163,352.591 548.067,351.508 L 544.257,349.539 L 551.385,347.077 C 564.103,347.077 576.82,347.077 589.539,347.077 C 590.769,347.077 590.769,347.077 590.769,347.077 C 590.769,343.533 591.681,335.389 595.281,334.547 C 596.411,334.283 596.964,336.381 596.513,339.212 C 596.061,342.043 596.8,348.904 598.153,354.461 C 610.351,356.083 622.627,356.844 625.435,356.153 C 629.527,355.147 630.304,355.851 629.355,359.709 C 628.095,364.824 631.548,363.352 634.715,362.256 C 635.86,355.768 641.532,356.348 647.612,356.543 L 659.435,356.923 L 662.196,358.071 C 663.715,358.703 665.479,357.709 666.117,355.865 C 667.519,351.819 662.607,349.047 659.949,347.077 C 664.431,345.669 665.22,346.975 669.035,350.153 C 672.58,353.108 674.591,354.461 675.435,354.461 C 677.097,354.461 676.864,355.408 677.18,356.923 C 679.471,356.923 681.76,356.923 684.051,356.923 C 688.06,351.948 692.275,361.959 693.119,365.443 C 694.113,369.557 694.257,373.2 693.439,373.539 L 691.949,374.153 C 699.821,375.116 707.692,376.08 715.564,377.041 C 717.905,376.58 719.612,375.772 721.36,374.025 C 721.231,374.153 723.692,371.692 723.692,371.692 C 723.692,371.692 723.692,371.692 722.38,370.42 C 721.657,369.721 722.707,367.009 724.712,364.395 C 726.195,362.463 727.592,360.456 729.263,358.681 C 727.312,365.46 725.447,372.244 723.692,379.077 L 714.104,384 C 717.2,384 719.531,383.828 722.492,382.819 C 724.397,382.169 726.177,382.445 726.447,383.433 C 727.423,387.012 733.147,386.523 736,385.231 C 739.883,383.473 744.396,384.443 747.879,387.18 C 751.167,389.763 742.907,392.959 741.18,393.847 L 747.008,392.929 C 750.213,392.424 753.105,391.023 753.435,389.815 C 753.765,388.605 756.293,388.016 759.055,388.503 C 764.121,389.397 766.071,385.527 768,381.796 L 768,386.591 C 768,388.923 768,391.385 768,391.385 C 768,391.385 768,391.385 769.231,391.385 L 770.461,391.385 C 770.461,378.56 770.125,366.957 764.965,355.065 C 760.832,351.743 756.987,348.372 753.231,344.615 C 748.308,342.153 748.308,342.153 736,344.615 C 736,344.615 736,344.615 736,345.847 L 736,347.077 C 727.247,347.077 717.136,348.135 708.923,344.615 Z M 292.923,317.539 C 292.923,313.068 292.923,308.599 292.923,304.128 C 292.923,296.373 290.125,292.523 282.716,289.957 C 283.648,293.376 284.711,294.383 287.632,296.677 C 291.151,299.443 291.004,300.043 286.213,302.496 C 281.009,305.161 280.996,305.293 285.667,307.692 C 288.304,309.047 290.461,311.815 290.461,313.847 C 290.461,315.077 290.461,317.539 290.461,317.539 C 288.195,324.205 284.601,327.481 278.411,329.847 L 282.385,330.667 C 287.755,331.775 292.923,327.344 292.923,321.935 C 292.923,320 292.923,317.539 292.923,317.539 Z M 321.564,296.109 C 323.135,289.728 317.251,287.856 312.615,285.539 L 312.931,287.105 C 313.376,289.317 315.117,290.141 316.873,291.521 C 320.039,294.009 319.957,294.853 316.239,298.144 C 313.103,300.917 312.732,302.509 314.837,304.163 C 316.411,305.4 316.977,308.491 316.097,311.033 C 314.847,314.649 315.421,315.336 318.739,314.188 C 324.197,312.299 321.22,305.571 320.228,301.539 C 320.428,301.539 321.444,296.597 321.564,296.109 Z M 435.133,301.409 L 434.573,297.847 C 433.305,297.847 432.037,297.847 430.769,297.847 L 433.168,302.643 C 434.797,305.901 434.689,308.129 432.832,309.588 C 430.891,311.113 431.207,312.608 433.921,314.74 C 439.484,319.111 429.701,321.003 426.104,322.461 C 429.153,322.461 431.957,322.305 434.976,321.797 C 440.129,320.929 435.692,312.377 435.692,308.667 C 435.692,306.176 435.519,303.868 435.133,301.409 Z M 510.101,309.717 C 507.46,307.643 504.264,306.675 505.847,311.256 C 506.575,313.367 507.269,315.473 507.897,317.615 C 508.348,319.152 507.088,321.225 505.093,322.223 C 499.975,324.781 506.64,327.881 509.281,329.847 C 508.82,333.313 510.705,322.453 510.899,321.409 C 511.993,315.467 511.687,310.963 510.101,309.717 Z M 380.979,308.795 L 380.42,305.231 C 375.46,305.231 378.236,310.596 379.219,313.847 C 377.644,313.847 379.271,314.892 379.956,315.692 C 382.217,318.331 381.109,309.621 380.979,308.795 Z "/>
		<path id="dp_path067" fill="#688f56" fill-rule="evenodd" d="M 231.385,300.308 C 226.461,300.308 216.615,302.769 213.052,305.103 C 200.255,308.449 187.657,310.076 174.512,310.411 C 167.343,312.571 160.172,314.731 153.003,316.891 C 143.071,320.541 133.117,324.037 123.077,327.385 C 123.077,327.385 123.077,327.385 123.077,328.615 L 123.077,329.847 C 128.977,329.847 134.759,329.929 140.308,332.308 C 142.769,334.769 145.231,337.231 146.461,337.504 C 151.495,341.755 152.615,344.917 152.615,354.864 C 152.615,366.337 150.113,375.405 139.352,380.785 C 126.804,387.06 113.992,382.78 104.271,374.18 C 99.3587,366.589 98.4613,358.655 98.4613,349.539 C 98.4613,349.539 98.4613,347.077 99.692,345.975 C 100.781,342.821 101.731,341.853 104.487,339.949 C 107.756,337.692 110.416,335.123 113.231,332.308 C 113.231,332.308 110.769,332.308 111.305,332.308 L 109.381,332.308 C 97.6947,337.388 86.6573,343.961 76.5653,351.743 C 70.8013,355.115 64.8693,361.028 63.508,367.753 C 67.2133,370.495 70.5733,373.343 73.8467,376.615 C 86.2973,389.067 108.361,393.847 125.281,393.847 C 139.935,393.847 157.656,391.28 169.08,381.125 C 172.677,377.928 175.487,373.885 175.323,372.143 C 175.16,370.4 176.076,366.32 177.36,363.077 L 179.692,357.18 C 181.092,361.887 182.397,366.888 187.177,369.345 C 191.403,371.517 191.427,371.805 187.507,373.219 L 183.271,374.744 C 176.972,380.355 170.864,386.405 163.949,391.256 C 153.621,398.501 139.481,398.769 127.435,398.769 C 116.455,398.769 107.713,397.655 98.7187,391.643 C 91.8,390.175 86.248,389.156 80.3187,385.231 C 75.5787,382.093 66.8053,377.987 64.624,386.852 C 63.4907,391.453 64.4987,392.279 72.144,393.007 C 77.684,393.533 81.5533,394.136 86.4107,396.565 C 110.777,408.748 135.411,422.16 162.968,424.965 C 171.512,425.835 179.381,427.496 180.456,428.657 C 185.884,434.521 197.255,435.503 204.308,433.231 C 206.769,430.769 214.153,428.308 218.725,425.407 C 226.337,421.276 233.067,417.655 239.32,411.704 C 243.632,407.601 247.385,403.439 251.077,398.769 C 251.077,396.308 253.539,391.385 253.539,390.283 C 255.536,383.393 256,376.585 256,369.488 C 253.749,360.457 250.648,351.553 253.539,342.411 C 255.18,348.804 256.82,355.196 258.461,361.589 C 258.461,374.349 257.564,386.483 253.539,398.769 C 253.539,398.769 253.539,401.231 251.923,402 C 246.663,412.52 235.105,420.187 224.759,424.916 L 211.949,430.769 L 214.153,433.231 C 214.153,433.231 216.615,433.231 218.596,433.231 C 227.224,433.231 234.511,428.264 240.592,422.859 L 246.647,417.477 C 248.251,412.681 250.429,408.904 253.667,404.923 C 266.457,389.192 263.812,365.584 257.997,347.635 C 255.803,340.861 255.759,338.416 257.82,337.853 C 259.332,337.441 261.497,340.012 262.631,343.568 C 264.603,349.744 265.075,349.9 273.231,347.077 C 273.231,347.077 273.231,344.615 273.231,342.636 L 273.231,338.193 C 268.289,329.171 264.285,319.907 260.923,310.153 C 260.923,310.153 260.923,310.153 260.571,309.979 L 260.22,309.803 L 256.767,305.055 C 253.804,300.98 250.209,300.308 231.385,300.308 Z M 206.769,379.077 C 209.86,376.843 211.668,373.669 210.801,372 C 209.247,369.004 209.484,367.477 210.052,364.12 C 210.695,360.316 207.836,354.461 203.301,354.461 C 201.847,354.461 201.847,354.461 201.847,354.461 C 202.489,357.659 203.603,358.479 206.189,360.512 C 208.819,362.577 209.108,364.052 207.183,365.565 C 203.253,368.652 206.769,375.112 206.769,379.077 C 204.308,379.077 204.308,379.077 201.847,379.077 C 204.665,390.888 204.587,391.232 198.495,393.74 L 192.257,396.308 C 197.089,397.255 201.147,397.495 205.197,393.911 C 210.907,388.86 206.769,384.895 206.769,379.077 Z M 217.333,413.628 C 220.199,411.437 220.22,410.597 217.461,408.577 C 215.156,406.888 214.025,407.131 213.729,409.377 C 213.201,413.393 207.789,414.511 204.64,415.6 C 204.215,417.163 203.788,418.724 203.363,420.285 C 200.481,421.319 197.6,422.352 194.719,423.385 C 204.083,425.396 210.304,419.005 217.333,413.628 Z M 76.648,368.163 L 71.8667,362.425 C 70.8853,362.232 69.904,362.039 68.9227,361.847 C 70.5053,365.011 72.088,368.176 73.6707,371.341 C 78.484,374.841 83.2933,377.745 89.092,379.443 C 93.3133,380.677 96.8667,381.199 100.667,379.077 L 91.048,376.488 C 85.7573,375.065 79.2787,371.319 76.648,368.163 Z M 245.128,375.944 C 246.112,370.597 245.421,367.324 241.231,364.308 L 242.668,370.331 C 243.459,373.644 243.193,377.609 242.077,379.144 C 239.241,383.044 240.999,389.533 241.551,393.947 L 243.932,392.075 C 245.241,391.047 245.724,388.751 245.003,386.973 C 244.283,385.197 244.339,380.233 245.128,375.944 Z "/>
		<path id="dp_path068" fill="#617057" fill-rule="evenodd" d="M 462.769,384 L 460.308,384 L 460.308,386.461 L 462.769,396.565 C 462.769,400.445 463.287,403.779 464.151,407.603 C 465.852,415.141 458.793,416.305 453.18,418.461 C 456.604,418.461 459.529,418.137 462.897,417.372 C 471.709,415.372 466.305,401.497 465.231,396.179 C 465.231,393.847 462.769,386.461 462.769,384 Z "/>
		<path id="dp_path069" fill="#635f58" fill-rule="evenodd" d="M 595.692,300.308 C 592.269,302.02 590.72,301.767 590.072,299.389 C 589.315,296.616 588.919,296.624 587.512,299.439 C 588.308,300.308 585.847,302.769 585.847,302.769 C 603.077,310.153 603.077,310.153 608,312.615 L 610.288,304.912 L 606.749,306.137 C 604.213,307.015 603.003,306.597 602.361,304.247 L 599.027,304.247 C 597.192,304.247 595.692,303.36 595.692,302.277 C 595.692,302.769 595.692,300.308 595.692,300.308 Z "/>
		<path id="dp_path070" fill="#647259" fill-rule="evenodd" d="M 273.847,422.025 L 272,418.461 C 268.277,418.461 269.095,421.757 269.851,424.92 C 271.232,430.707 270.605,431.475 263.825,432.304 L 256.257,433.231 L 261.137,434.621 C 269.383,436.971 278.615,431.231 273.847,422.025 Z "/>
		<path id="dp_path071" fill="#767d5a" fill-rule="evenodd" d="M 487.385,265.847 C 487.385,265.847 487.385,265.847 486.153,265.847 C 484.923,265.847 483.692,265.847 482.461,265.847 L 482.461,268.308 L 485.212,275.692 C 484.115,281.916 481.272,283.077 474.571,283.077 L 465.231,283.077 L 465.231,281.847 C 465.231,280.615 465.231,280.615 465.231,280.615 L 462.769,285.539 L 489.847,285.539 Z "/>
		<path id="dp_path072" fill="#62625c" fill-rule="evenodd" d="M 814.769,433.231 L 812.308,433.231 L 812.308,435.692 L 827.359,441.847 C 828.82,441.436 830.281,441.025 831.743,440.615 L 823.256,436.923 C 822.153,435.692 817.231,433.231 814.769,433.231 Z "/>
		<path id="dp_path073" fill="#666d5e" fill-rule="evenodd" d="M 617.847,315.077 L 623.027,309.896 L 627.692,305.231 C 632.272,300.651 632.245,300.611 626.204,303.027 C 622.156,304.645 619.675,305.889 616.711,309.052 C 613.559,312.415 613.288,312.615 611.916,312.615 C 610.461,312.615 610.461,312.615 610.461,312.615 Z "/>
		<path id="dp_path074" fill="#6f7565" fill-rule="evenodd" d="M 635.077,310.153 L 627.692,312.615 L 627.692,315.077 C 630.153,320 630.153,320 640,322.461 C 640,320 640,320 640,317.539 L 630.153,317.539 Z "/>
		<path id="dp_path075" fill="#758466" fill-rule="evenodd" d="M 480,258.461 C 468.691,263.403 459.219,269.396 450.591,278.025 C 450.461,278.153 450.461,278.153 450.461,278.153 C 450.461,278.153 450.461,278.153 451.821,278.153 C 452.791,278.153 454.869,276.78 459.077,273.36 C 463.529,269.739 467.203,267.772 472.615,265.847 L 487.385,260.923 L 487.385,258.461 C 485.333,258.461 483.281,258.461 481.231,258.461 C 480,258.461 480,258.461 480,258.461 Z "/>
		<path id="dp_path076" fill="#6a6a6a" fill-rule="evenodd" d="M 679.385,413.539 C 688.869,409.473 701.252,411.077 711.385,411.077 L 711.385,412.308 C 711.385,413.539 711.385,413.539 711.385,413.539 Z "/>
		<path id="dp_path077" fill="#78856b" fill-rule="evenodd" d="M 280.615,359.385 L 283.077,369.231 L 297.589,366.769 C 293.659,365.948 289.727,365.128 285.796,364.308 C 284.155,363.487 282.513,362.667 280.872,361.847 C 284.804,361.025 288.735,360.205 292.667,359.385 C 288.649,359.385 284.632,359.385 280.615,359.385 Z "/>
		<path id="dp_path078" fill="#7e986d" fill-rule="evenodd" d="M 450.461,248.615 C 438.153,260.923 438.153,260.923 438.153,263.385 L 450.461,253.539 C 450.461,253.539 450.461,253.539 450.461,252.308 L 450.461,251.077 C 451.281,251.077 452.103,251.077 452.923,251.077 L 452.923,248.615 Z "/>
		<path id="dp_path079" fill="#767770" fill-rule="evenodd" d="M 329.847,455.385 C 320.217,451.987 325.529,467.817 326.544,471.836 C 327.385,475.077 329.847,482.461 329.847,484.923 L 332.308,484.923 L 334.769,484.923 L 334.769,482.461 C 329.847,467.692 329.847,467.692 329.847,462.769 Z "/>
		<path id="dp_path080" fill="#83a372" fill-rule="evenodd" d="M 548.923,359.385 C 548.923,359.385 548.923,359.385 548.795,358.153 C 548.576,356.059 541.965,356.111 541.539,358.153 C 540.991,360.776 530.087,359.88 528,358.153 C 526.624,357.016 525.975,356.923 524.179,356.923 C 518.564,356.923 512.949,356.923 507.333,356.923 C 489.296,355.921 471.251,354.461 453.18,354.461 C 456.996,352.995 466.348,351.336 462.829,345.839 C 461.443,343.671 460.64,340.1 461.047,337.905 C 461.637,334.707 460.44,334.243 455.021,335.572 C 451.301,336.484 444.38,336.677 439.643,336 L 431.027,334.769 C 424.463,334.769 417.899,334.769 411.333,334.769 C 403.828,334.472 393.181,331.86 388.923,339.692 C 388.923,339.692 388.923,342.153 387.864,343.299 C 387.281,345.283 384.196,348.209 381.007,349.804 C 375.892,352.361 374.537,353.3 369.512,357.767 C 364.68,362.061 362.289,365.884 359.385,371.692 L 362.461,375.385 C 364.632,375.795 366.803,376.205 368.973,376.615 C 369.565,373.784 372.981,374.972 375.267,375.508 C 378.445,376.252 382.265,376.252 383.753,375.508 C 384,374.153 386.461,374.153 386.461,374.153 C 386.461,374.153 388.923,374.153 389.7,372.535 C 392.212,371.279 392.939,370.919 393.672,368.227 C 394.361,365.703 394.364,365.539 396.815,365.539 C 395.595,369.983 393.847,374.455 393.847,379.077 C 397.173,383.513 400.411,384 426.591,384 L 455.643,384 L 457.975,385.231 C 457.847,386.461 460.308,386.461 460.308,386.461 L 460.308,384 L 462.769,384 L 497.488,386.461 L 508.625,386.461 C 518.16,386.461 519.548,385.841 518.272,382.153 L 516.781,377.847 C 516.624,377.847 516.465,377.847 516.308,377.847 C 517.961,374.54 519.613,371.233 521.267,367.928 C 523.592,376.453 534.509,374.153 541.796,374.153 L 544.128,375.385 C 544,376.615 546.461,376.615 546.461,376.615 C 551.385,369.231 551.385,369.231 548.923,359.385 Z M 432.511,364.305 C 431.323,359.481 427.56,358.168 423.385,356.923 L 427.221,361.773 C 430.795,366.291 430.635,366.799 424.889,369.159 L 418.719,371.692 C 422.244,371.692 425.229,371.323 428.696,370.513 C 432.341,369.664 433.404,367.933 432.511,364.305 Z "/>
		<path id="dp_path081" fill="#848178" fill-rule="evenodd" d="M 546.461,450.461 C 553.847,465.231 553.847,465.231 558.769,467.692 C 556.308,460.308 556.308,460.308 548.923,450.461 Z "/>
		<path id="dp_path082" fill="#797979" fill-rule="evenodd" d="M 123.077,352 C 118.153,356.923 118.153,356.923 118.153,361.847 L 128,359.385 L 128,354.461 Z "/>
		<path id="dp_path083" fill="#81897a" fill-rule="evenodd" d="M 615.385,273.231 C 603.077,288 603.077,288 603.077,290.461 L 617.847,275.692 Z "/>
		<path id="dp_path084" fill="#899c7a" fill-rule="evenodd" d="M 329.847,450.461 L 292.923,450.461 L 292.923,448 C 322.461,448 322.461,448 329.847,450.461 Z "/>
		<path id="dp_path085" fill="#83877c" fill-rule="evenodd" d="M 878.769,312.615 L 881.231,307.692 L 856.615,320 C 868.923,317.539 868.923,317.539 878.769,312.615 Z "/>
		<path id="dp_path086" fill="#87897e" fill-rule="evenodd" d="M 775.385,366.769 L 772.923,359.385 C 785.38,359.385 797.661,358.152 809.589,361.847 C 798.107,361.847 785.704,360.763 775.385,366.769 Z "/>
		<path id="dp_path087" fill="#878880" fill-rule="evenodd" d="M 590.833,465.847 L 592.973,465.231 C 585.675,458.667 578.376,452.103 571.077,445.539 C 571.633,447.509 572.189,449.481 572.745,451.452 L 580.719,458.957 C 585.104,463.084 589.656,466.184 590.833,465.847 Z "/>
		<path id="dp_path088" fill="#898b80" fill-rule="evenodd" d="M 846.769,374.153 C 841.683,372.848 836.609,371.529 831.56,370.085 C 828.14,369.108 825.68,369.589 825.277,371.316 C 824.615,371.692 824.615,374.153 824.615,374.153 Z "/>
		<path id="dp_path089" fill="#888b81" fill-rule="evenodd" d="M 816.033,411.028 C 810.755,407.133 803.963,407.16 797.539,406.153 C 804.799,408.737 812.111,411.141 819.435,413.539 Z "/>
		<path id="dp_path090" fill="#8a8b81" fill-rule="evenodd" d="M 800.973,417.231 L 789.896,413.539 C 787.521,413.539 785.145,413.539 782.769,413.539 L 791.256,416 C 795.924,417.353 801.52,419.569 803.692,420.923 C 806.813,422.868 809.116,422.561 812.051,420.923 Z "/>
		<path id="dp_path091" fill="#8fa781" fill-rule="evenodd" d="M 477.539,228.923 C 468.32,233.303 459.021,240.056 451.821,247.256 C 450.461,248.615 450.461,248.615 450.461,248.615 L 452.923,248.615 C 452.923,248.615 452.923,248.615 454.505,248.615 C 455.816,248.615 457.108,247.747 462.019,243.564 C 467.461,238.928 472.481,233.98 477.539,228.923 Z "/>
		<path id="dp_path092" fill="#898b82" fill-rule="evenodd" d="M 843.453,433.452 C 837.14,428.827 827.181,427.787 819.692,425.847 C 827.921,431.148 837.115,433.28 846.512,435.692 Z "/>
		<path id="dp_path093" fill="#95ab82" fill-rule="evenodd" d="M 356.923,332.308 C 340.953,332.308 324.961,333.137 309.896,338.591 C 304.045,340.708 298.485,342.936 292.923,345.717 C 289.003,347.677 283.455,349.869 280.595,350.589 C 276.511,351.616 275.955,352.701 278.004,355.641 C 278.153,356.923 280.615,359.385 280.615,359.385 C 284.632,359.385 288.649,359.385 292.667,359.385 C 288.735,360.205 284.804,361.025 280.872,361.847 C 282.513,362.667 284.155,363.487 285.796,364.308 C 289.727,365.128 293.659,365.948 297.589,366.769 L 283.077,369.231 L 285.311,380.308 C 288.613,380.308 287.703,387.463 285.175,388.308 C 281.575,389.511 287.209,391.349 289.231,392.615 C 292.475,394.647 297.844,396.917 301.164,397.661 C 315.648,400.911 327.953,388.353 336.973,379.333 C 339.564,377.975 342.153,376.615 344.744,375.256 C 352.448,371.213 358.855,362.275 364.744,356.025 C 369.087,351.417 372.521,347.893 378.153,345.077 C 381.369,343.469 384,341.047 384,339.692 C 384,339.692 384,337.231 384,337.231 L 384,332.308 Z M 340.592,353.231 C 342.235,348.485 335.075,349.539 332.308,349.539 C 330.393,350.359 328.479,351.18 326.564,352 C 319.535,352 314.144,353.655 307.949,356.923 L 323.632,356.923 C 335.363,356.923 339.636,355.993 340.592,353.231 Z "/>
		<path id="dp_path094" fill="#8c8e84" fill-rule="evenodd" d="M 846.457,447.957 L 840.883,445.539 C 839.563,445.539 838.243,445.539 836.923,445.539 C 844.221,449.555 851.521,453.572 858.82,457.589 L 855.425,453.983 C 852.6,450.98 850.256,449.605 846.457,447.957 Z "/>
		<path id="dp_path095" fill="#909287" fill-rule="evenodd" d="M 647.385,312.615 L 640,315.077 L 640,317.539 C 640,320 640,320 640,322.461 L 652.308,324.923 L 652.308,322.461 L 648,316.308 C 646.979,316.308 647.385,315.38 647.385,314.461 C 647.385,315.077 647.385,312.615 647.385,312.615 Z "/>
		<path id="dp_path096" fill="#919288" fill-rule="evenodd" d="M 359.103,500.436 C 355.212,495.963 351.268,491.576 347.077,487.385 C 348.716,490.835 350.464,494.097 352.443,497.372 C 355.411,502.287 359.609,508.308 365.948,508.308 Z "/>
		<path id="dp_path097" fill="#93978a" fill-rule="evenodd" d="M 631.049,280.615 C 635.4,277.424 630.408,278.153 627.692,278.153 C 623.169,282.676 618.259,286.583 613.18,290.461 C 619.903,288.22 625.381,284.772 631.049,280.615 Z "/>
		<path id="dp_path098" fill="#a4af8a" fill-rule="evenodd" d="M 662.153,320 L 654.769,322.461 L 657.231,327.385 L 681.847,324.923 C 675.224,322.085 669.321,322.461 662.153,322.461 L 662.153,321.231 C 662.153,320 662.153,320 662.153,320 Z "/>
		<path id="dp_path099" fill="#99a18c" fill-rule="evenodd" d="M 891.077,408.615 C 893.539,416 893.539,416 905.847,425.847 L 903.385,418.461 Z "/>
		<path id="dp_path100" fill="#a0b78f" fill-rule="evenodd" d="M 590.769,347.077 C 590.769,347.077 590.769,347.077 589.539,347.077 C 576.82,347.077 564.103,347.077 551.385,347.077 C 551.385,347.077 551.385,349.539 552.825,349.957 C 553.617,351.543 553.869,357.868 553.387,364.015 C 552.639,373.516 551.601,375.404 546.461,376.615 C 546.461,376.615 544,376.615 544.128,375.385 L 541.796,374.153 C 534.509,374.153 523.592,376.453 521.267,367.928 C 519.613,371.233 517.961,374.54 516.308,377.847 C 516.465,377.847 516.624,377.847 516.781,377.847 L 518.272,382.153 C 519.548,385.841 518.16,386.461 508.625,386.461 L 497.488,386.461 L 462.769,384 C 462.769,386.461 465.231,393.847 465.231,396.179 C 466.305,401.497 471.709,415.372 462.897,417.372 C 459.529,418.137 456.604,418.461 453.18,418.461 C 458.793,416.305 465.852,415.141 464.151,407.603 C 463.287,403.779 462.769,400.445 462.769,396.565 L 460.308,386.461 C 460.308,386.461 457.847,386.461 457.975,385.231 L 455.643,384 L 426.591,384 C 400.411,384 397.173,383.513 393.847,379.077 C 393.847,379.077 393.847,379.077 393.847,380.308 C 393.847,381.539 393.847,382.769 393.847,384 L 391.385,384 C 391.385,384 391.385,384 389.744,385.436 L 388.103,386.872 C 388.103,390.505 389.401,398.004 383.719,397.047 L 379.333,396.308 C 382.539,395.084 386.184,393.867 384.68,389.52 C 383.647,386.535 384.868,384.947 388.923,384 L 386.461,374.153 C 386.461,374.153 384,374.153 383.753,375.508 C 382.265,376.252 378.445,376.252 375.267,375.508 C 372.981,374.972 369.565,373.784 368.973,376.615 C 366.803,376.205 364.632,375.795 362.461,375.385 L 359.385,371.692 C 359.385,371.692 356.923,374.153 354.591,375.256 C 352.18,377.047 349.8,378.819 346.82,379.333 C 341.455,384.699 336.747,390.245 329.975,393.717 C 318.117,399.797 303.953,407.775 291.205,398.461 C 289.584,397.277 286.48,396.251 284.308,396.179 C 280.891,396.068 278.131,395.348 274.859,394.317 C 269.431,392.605 269.419,392.512 274.003,387.012 C 277.352,382.992 278.385,378.651 277.707,371.439 C 276.815,361.941 271.555,356.597 265.012,350.523 C 268.909,366.632 269.812,384.555 262.635,400.023 C 258.567,408.789 253.06,416.085 247.021,423.503 C 239.991,432.137 229.831,435.241 219.333,438.153 C 243.76,445.132 267.203,448 292.923,448 C 322.461,448 322.461,448 329.847,450.461 C 374.153,452.923 374.153,452.923 391.385,452.923 L 438.153,452.923 C 438.153,452.923 438.153,452.923 438.153,451.692 L 438.153,450.461 C 439.437,451.104 440.721,451.745 442.005,452.388 C 469.16,450.381 496.341,448.88 523.333,445.281 C 539.675,443.103 555.32,439.556 571.333,435.692 C 583.471,431.675 595.607,427.659 607.743,423.643 C 614.667,423.497 621.081,422.869 627.435,419.692 C 642.735,412.043 662.423,408.615 679.385,408.615 C 679.385,408.615 679.385,408.615 679.385,407.385 L 679.385,406.153 C 690.201,406.153 703.735,404.283 713.847,408.615 C 722.429,408.615 730.633,410.099 738.901,412.499 C 750.721,415.931 751.679,415.859 756.724,411.173 C 759.656,408.451 764.731,399.547 768,391.385 C 768,391.385 768,388.923 768,386.591 L 768,381.796 C 766.071,385.527 764.121,389.397 759.055,388.503 C 756.293,388.016 753.765,388.605 753.435,389.815 C 753.105,391.023 750.213,392.424 747.008,392.929 L 741.18,393.847 C 742.907,392.959 751.167,389.763 747.879,387.18 C 744.396,384.443 739.883,383.473 736,385.231 C 733.147,386.523 727.423,387.012 726.447,383.433 C 726.177,382.445 724.397,382.169 722.492,382.819 C 719.531,383.828 717.2,384 714.104,384 L 723.692,379.077 C 723.692,379.077 723.692,379.077 723.692,377.847 C 723.692,375.795 723.692,373.744 723.692,371.692 C 723.692,371.692 721.231,374.153 721.36,374.025 C 719.612,375.772 717.905,376.58 715.564,377.041 C 707.692,376.08 699.821,375.116 691.949,374.153 L 693.439,373.539 C 694.257,373.2 694.113,369.557 693.119,365.443 C 692.275,361.959 688.06,351.948 684.051,356.923 C 681.76,356.923 679.471,356.923 677.18,356.923 C 676.864,355.408 677.097,354.461 675.435,354.461 C 674.591,354.461 672.58,353.108 669.035,350.153 C 665.22,346.975 664.431,345.669 659.949,347.077 C 662.607,349.047 667.519,351.819 666.117,355.865 C 665.479,357.709 663.715,358.703 662.196,358.071 L 659.435,356.923 L 647.612,356.543 C 641.532,356.348 635.86,355.768 634.715,362.256 C 631.548,363.352 628.095,364.824 629.355,359.709 C 630.304,355.851 629.527,355.147 625.435,356.153 C 622.627,356.844 610.351,356.083 598.153,354.461 C 598.153,354.461 595.692,354.461 595.821,355.692 L 593.488,356.923 C 591.847,356.923 590.205,356.923 588.565,356.923 L 593.155,354.564 C 597.413,352.375 597.243,351.837 590.769,347.077 Z M 599.632,376.795 C 597.616,375.329 595.719,374.153 593.231,374.153 L 595.856,377.919 C 597.301,379.989 597.855,382.816 597.088,384.201 C 594.473,388.917 594.288,397.108 598.153,400.973 L 600.708,390.204 C 602.789,381.429 602.591,378.947 599.632,376.795 Z M 273.847,422.025 L 272,418.461 C 268.277,418.461 269.095,421.757 269.851,424.92 C 271.232,430.707 270.605,431.475 263.825,432.304 L 256.257,433.231 L 261.137,434.621 C 269.383,436.971 278.615,431.231 273.847,422.025 Z M 349.265,412.811 L 348.525,408.615 C 345.936,408.615 344.836,409.359 345.725,412.368 C 346.336,414.432 344.8,417.139 342.313,418.381 C 337.459,420.809 336.445,426.112 335.279,430.853 C 341.256,429.224 350.397,419.229 349.265,412.811 Z M 640,389.627 C 640,385.179 638.892,380.985 637.539,380.308 C 636.185,379.631 635.631,380.243 636.308,381.667 C 638.536,386.357 638.355,394.477 635.964,399.087 C 634.921,401.099 635.336,401.379 637.195,399.919 C 638.737,398.705 640,394.075 640,389.627 Z M 393.103,412.179 L 390.153,408.615 C 388.923,408.615 387.692,408.615 386.461,408.615 L 388.795,413.409 C 390.077,416.047 391.257,419.947 391.416,422.075 C 391.595,424.464 392.717,425.151 394.347,423.871 C 398.492,420.613 395.743,415.371 393.103,412.179 Z M 704,391.243 C 704,386.076 695.969,381.86 698.048,388.743 C 699.785,394.493 693.596,395.147 689.488,396.308 L 696.744,396.308 C 702.427,396.308 704,395.209 704,391.243 Z M 546.461,412.449 L 546.461,403.692 C 543.468,403.692 544,404.407 544,407.513 C 544,413.26 541.3,418.364 539.251,423.703 C 544.884,421.753 546.461,418.839 546.461,412.449 Z M 579.655,379.252 C 580.907,373.412 580.611,370.301 578.764,369.872 C 577.244,369.52 576.553,370.396 577.231,371.821 C 579.404,376.393 575.397,384.472 574.013,389.017 C 575.269,388.675 576.527,388.332 577.783,387.989 Z "/>
		<path id="dp_path101" fill="#a49c92" fill-rule="evenodd" d="M 334.769,482.461 L 334.769,484.923 L 332.308,484.923 L 337.231,499.692 C 344.369,496.123 344.445,504.445 348.308,508.308 C 349.539,509.539 349.539,509.539 349.539,509.539 C 349.539,504.339 346.693,496.48 342.299,493.7 C 339.576,491.977 338.715,490.145 337.231,487.256 C 337.231,484.923 334.769,482.461 334.769,482.461 Z "/>
		<path id="dp_path102" fill="#9a9c94" fill-rule="evenodd" d="M 768,352 C 774.497,349.585 780.967,347.107 787.435,344.615 C 781.56,344.615 776.144,344.86 770.333,345.847 C 768,347.077 765.539,347.077 763.077,347.077 Z "/>
		<path id="dp_path103" fill="#aaa794" fill-rule="evenodd" d="M 428.308,241.231 C 430.844,230.817 433.841,221.412 440.744,212.923 C 444.739,208.009 447.52,202.763 450.165,197.072 L 452.775,195.767 C 452.923,194.461 455.385,194.461 455.385,194.461 C 455.385,194.461 455.385,196.923 454.025,198.283 C 451.175,206.292 446.077,213.748 440.744,220.308 L 435.949,226.204 Z "/>
		<path id="dp_path104" fill="#a2b395" fill-rule="evenodd" d="M 918.153,263.385 C 922.567,261.793 928.079,261.401 930.704,262.491 C 937.863,265.46 936.599,281.576 932.923,286.897 C 932.923,288 930.461,290.461 930.461,290.461 C 930.461,290.461 930.461,288 931.692,285.667 C 933.328,279.296 934.297,272.351 930.349,266.923 C 928.869,264.888 923.687,263.385 918.153,263.385 Z "/>
		<path id="dp_path105" fill="#a8b298" fill-rule="evenodd" d="M 905.847,425.847 C 907.621,431.359 909.452,434.896 913.103,439.385 C 916.773,443.9 918.215,446.176 919.256,449.103 C 920.004,451.204 921.723,452.923 923.077,452.923 C 923.077,452.923 925.539,452.923 925.539,452.923 C 923.077,448 923.077,448 918.153,438.153 C 913.231,433.231 913.231,433.231 905.847,425.847 Z "/>
		<path id="dp_path106" fill="#a2a59a" fill-rule="evenodd" d="M 850.788,386.807 C 849.173,385.537 840.408,383.833 831.311,383.019 L 814.769,381.539 L 819.564,383.872 C 829.627,388.768 842.651,388.016 853.725,389.113 Z "/>
		<path id="dp_path107" fill="#beb09b" fill-rule="evenodd" d="M 546.461,450.461 L 541.539,448 L 551.385,467.692 C 553.847,470.153 553.847,470.153 558.769,475.077 C 561.231,475.077 561.231,475.077 563.692,475.077 L 561.231,467.692 L 558.769,467.692 C 553.847,465.231 553.847,465.231 546.461,450.461 Z "/>
		<path id="dp_path108" fill="#adb29b" fill-rule="evenodd" d="M 632.615,251.077 C 629.767,252.431 625.932,254.647 624.095,256 C 622.259,257.353 619.547,258.461 618.069,258.461 C 617.847,258.461 615.385,258.461 615.385,258.461 L 610.461,263.385 C 611.692,263.385 612.923,263.385 614.153,263.385 C 615.379,263.385 615.385,263.391 615.385,264.615 C 615.385,265.847 615.385,265.847 615.385,265.847 C 622.769,263.385 622.769,263.385 632.615,251.077 Z "/>
		<path id="dp_path109" fill="#a3a59c" fill-rule="evenodd" d="M 785.231,423.385 L 796.655,429.539 L 796.968,430.153 C 797.584,431.365 794.753,431.643 793.717,432 C 792.615,433.231 790.153,433.231 790.153,433.231 C 798.495,433.512 805.355,438.437 812.051,442.82 C 809.675,440.444 807.299,438.068 804.923,435.692 C 802.547,433.317 800.172,430.94 797.796,428.565 L 805.052,432.128 C 807.385,433.231 809.847,435.692 812.308,435.692 L 812.308,433.231 L 814.769,433.231 C 795.077,425.847 795.077,425.847 785.231,423.385 Z "/>
		<path id="dp_path110" fill="#a5a89c" fill-rule="evenodd" d="M 847.441,422.153 L 838.524,418.461 C 837.171,418.461 835.816,418.461 834.461,418.461 L 843.205,423.385 C 848.015,426.092 852.941,427.753 854.153,427.077 L 856.357,425.847 Z "/>
		<path id="dp_path111" fill="#fefc9d" fill-rule="evenodd" d="M 118.153,347.077 C 113.917,347.477 111.605,351.421 108.755,354.461 L 106.069,354.461 C 105.847,354.461 103.385,354.461 103.385,354.461 L 103.385,359.385 L 113.231,356.923 Z "/>
		<path id="dp_path112" fill="#fefe9f" fill-rule="evenodd" d="M 132.923,334.769 C 125.539,334.769 125.539,334.769 118.153,337.231 L 123.077,339.692 L 123.077,347.077 C 132.923,347.077 132.923,347.077 137.847,352 C 137.847,352 137.847,352 139.077,352 C 141.128,352 143.18,352 145.231,352 L 140.923,343.385 C 139.984,342.975 139.044,342.564 138.104,342.153 L 140.436,340.923 C 140.308,339.692 142.769,339.692 142.769,339.692 L 142.769,337.231 Z "/>
		<path id="dp_path113" fill="#b2b8a0" fill-rule="evenodd" d="M 610.461,263.385 L 605.539,268.308 C 606.351,270.068 605.575,273.488 603.815,275.908 C 602.055,278.328 600.615,280.931 600.615,281.692 C 600.615,283.077 600.615,283.077 600.615,283.077 C 612.923,270.769 612.923,270.769 615.385,265.847 C 615.385,265.847 615.385,265.847 615.385,264.615 C 615.385,263.391 615.379,263.385 614.153,263.385 C 612.923,263.385 611.692,263.385 610.461,263.385 Z "/>
		<path id="dp_path114" fill="#b2bfa0" fill-rule="evenodd" d="M 482.461,233.847 L 477.539,238.769 L 480,248.357 L 481.337,252.125 C 482.073,254.197 482.073,256.471 481.337,257.177 C 480,258.461 480,258.461 480,258.461 C 480,258.461 480,258.461 481.231,258.461 C 483.281,258.461 485.333,258.461 487.385,258.461 C 482.461,248.615 482.461,248.615 482.461,233.847 Z "/>
		<path id="dp_path115" fill="#b0c1a0" fill-rule="evenodd" d="M 340.592,353.231 C 342.235,348.485 335.075,349.539 332.308,349.539 C 330.393,350.359 328.479,351.18 326.564,352 C 319.535,352 314.144,353.655 307.949,356.923 L 323.632,356.923 C 335.363,356.923 339.636,355.993 340.592,353.231 Z "/>
		<path id="dp_path116" fill="#c8b8a2" fill-rule="evenodd" d="M 563.692,475.077 C 561.231,475.077 561.231,475.077 558.769,475.077 C 561.231,480 561.231,480 566.153,484.923 L 570.092,483.692 C 570.092,480.169 569.895,479.609 566.892,477.415 C 566.153,477.539 563.692,475.077 563.692,475.077 Z "/>
		<path id="dp_path117" fill="#afbea2" fill-rule="evenodd" d="M 379.077,462.769 C 383.044,466.736 387.009,470.591 391.256,474.253 C 399.917,481.724 395.752,496.713 392.744,505.847 C 390.784,511.797 389.056,518.907 388.904,521.645 C 388.753,524.385 387.676,526.885 386.513,527.203 C 382.535,528.288 379.077,537.896 379.077,542.02 C 379.077,541.539 379.077,544 379.077,544 C 384.32,538.757 388.94,533.476 393.451,527.62 C 396.56,516.901 399.081,506.235 400.223,495.085 C 401.113,486.384 400.697,478.935 396.841,471.22 C 393.467,469.224 390.093,467.227 386.719,465.231 L 382.897,464 C 381.539,462.769 379.077,462.769 379.077,462.769 Z "/>
		<path id="dp_path118" fill="#b0c0a2" fill-rule="evenodd" d="M 482.461,268.308 L 480,268.308 L 480,270.769 C 482.297,277.485 482.329,279.636 480.136,280.061 L 477.281,280.615 C 475.207,279.709 474.869,278.568 476,276.308 C 477.539,275.692 477.539,273.231 477.539,273.231 C 475.077,273.231 475.077,273.231 465.231,280.615 C 465.231,280.615 465.231,280.615 465.231,281.847 L 465.231,283.077 L 474.571,283.077 C 481.272,283.077 484.115,281.916 485.212,275.692 Z "/>
		<path id="dp_path119" fill="#aeb0a3" fill-rule="evenodd" d="M 329.847,455.385 L 329.847,462.769 L 337.231,477.281 C 337.231,473.052 336.608,469.283 335.761,465.103 C 334.953,461.112 334.953,457.847 335.761,457.847 C 337.231,457.847 337.231,457.847 337.231,457.847 L 332.308,457.847 C 331.487,458.256 330.667,458.667 329.847,459.077 L 329.847,457.231 C 329.847,457.847 329.847,455.385 329.847,455.385 Z "/>
		<path id="dp_path120" fill="#bbd9a5" fill-rule="evenodd" d="M 905.847,327.385 C 895.759,332.177 888.088,341.147 879.407,348.099 C 874.044,352.392 873.847,362.921 873.847,369.231 C 873.847,366.769 876.308,364.308 876.22,362.444 L 878.593,355.659 C 880.379,354.353 882.164,353.048 883.949,351.743 L 893.539,344.615 C 900.923,337.231 900.923,337.231 905.847,327.385 Z "/>
		<path id="dp_path121" fill="#aeb0a6" fill-rule="evenodd" d="M 772.923,356.923 C 792.049,353.871 808.157,350.455 808.72,349.331 L 809.741,347.287 C 801.485,348.859 793.229,350.429 784.973,352 C 779.316,352 773.659,352 768,352 Z "/>
		<path id="dp_path122" fill="#b1b4a6" fill-rule="evenodd" d="M 777.847,420.923 L 770.461,425.847 L 775.385,430.769 C 777.847,430.769 777.847,430.769 790.153,435.692 L 790.153,433.231 C 790.153,433.231 792.615,433.231 793.717,432 C 794.753,431.643 797.584,431.365 796.968,430.153 L 796.655,429.539 L 785.231,423.385 Z "/>
		<path id="dp_path123" fill="#b6b6a8" fill-rule="evenodd" d="M 763.077,413.539 C 763.077,413.539 763.077,413.539 761.847,414.769 L 760.615,416 C 758.352,417.541 756.089,419.084 753.827,420.625 L 770.461,425.847 L 777.847,420.923 C 768,416 768,416 763.077,413.539 Z "/>
		<path id="dp_path124" fill="#bcc2a8" fill-rule="evenodd" d="M 667.077,253.539 C 662.825,254.513 661.671,257.143 660.509,268.476 C 659.433,278.993 661.059,288.299 664.241,298.163 C 667.563,302.075 670.884,305.985 674.204,309.896 L 675.123,313.288 C 676.307,317.656 668.679,317.825 665.847,318.769 C 664.615,320 662.153,320 662.153,320 C 662.153,320 662.153,320 662.153,321.231 L 662.153,322.461 C 669.321,322.461 675.224,322.085 681.847,324.923 L 692.009,327.725 C 683.177,318 675.185,307.069 669.529,295.223 C 664.588,284.875 661.964,268.343 665.847,257.103 C 667.077,256 667.077,253.539 667.077,253.539 Z "/>
		<path id="dp_path125" fill="#fefca8" fill-rule="evenodd" d="M 142.769,339.692 C 142.769,339.692 140.308,339.692 140.436,340.923 L 138.104,342.153 C 139.044,342.564 139.984,342.975 140.923,343.385 L 145.231,352 L 145.231,354.461 L 147.692,347.077 C 147.692,344.615 147.692,344.615 142.769,339.692 Z "/>
		<path id="dp_path126" fill="#b0b3a9" fill-rule="evenodd" d="M 816,324.923 L 826.82,322.461 C 817.129,319.115 807.063,324.26 797.796,327.385 C 804.179,327.385 809.709,326.355 816,324.923 Z "/>
		<path id="dp_path127" fill="#b1b3aa" fill-rule="evenodd" d="M 844.051,395.077 C 835.945,392.645 828.089,391.385 819.692,391.385 C 826.763,393.2 833.668,395.275 840.615,397.539 C 846.849,399.569 852.941,400.677 854.153,400 L 856.357,398.769 Z "/>
		<path id="dp_path128" fill="#b6b8ab" fill-rule="evenodd" d="M 337.231,499.692 C 344.369,496.123 344.445,504.445 348.308,508.308 C 349.539,509.539 349.539,509.539 349.539,509.539 L 344.615,512 Z "/>
		<path id="dp_path129" fill="#c8cabf" fill-rule="evenodd" d="M 356.387,479.713 C 354.528,476.643 353.115,474.561 350.233,472.457 C 345.531,469.025 348.284,476.305 350.021,478.033 C 354.328,482.316 358.477,486.759 362.676,491.148 L 361.029,487.907 C 359.601,485.093 358.021,482.413 356.387,479.713 Z "/>
		<path id="dp_path130" fill="#ccd8bf" fill-rule="evenodd" d="M 647.385,236.308 C 643.624,238.095 640.588,240.084 636.308,243.564 C 632.037,247.036 627.601,250.231 623.027,253.281 C 620.479,254.188 617.932,255.093 615.385,256 L 615.385,257.231 C 615.385,258.461 615.385,258.461 615.385,258.461 C 615.385,258.461 617.847,258.461 618.069,258.461 C 619.547,258.461 622.259,257.353 624.095,256 C 625.932,254.647 629.767,252.431 632.615,251.077 C 636.648,250.876 638.187,250.492 641.273,247.915 C 644.099,245.553 645.001,244.183 646.068,240.659 C 647.385,238.769 647.385,236.308 647.385,236.308 Z "/>
		<path id="dp_path131" fill="#c6c7c0" fill-rule="evenodd" d="M 647.385,428.308 C 647.385,428.308 647.385,428.308 646,428.308 C 645.239,428.308 642.961,427.104 640.939,425.635 C 638.917,424.164 634.613,423.609 631.376,424.403 C 616.929,427.944 602.941,432.64 589.317,438.552 C 588.713,440.769 588.023,442.935 585.157,441.501 C 583.532,440.689 581.899,441.141 581.527,442.508 C 581.153,443.873 579.147,444.56 577.065,444.033 C 571.028,442.507 566.412,443.076 560.56,445.139 C 555.504,446.921 550.397,444.108 548.923,450.461 C 556.308,460.308 556.308,460.308 558.769,467.692 L 561.231,467.692 L 563.692,475.077 C 563.692,475.077 566.153,477.539 566.892,477.415 C 569.895,479.609 570.092,480.169 570.092,483.692 L 566.153,484.923 C 566.153,484.923 566.153,487.385 567.692,488 C 568.539,489.692 570.753,493.016 572.615,495.385 C 578.741,503.181 584.893,510.935 591.359,518.453 C 595.917,523.755 603.983,532.376 611.751,526.727 C 620.175,520.6 620.308,508.972 620.308,499.072 C 620.308,491.82 621.912,482.959 623.872,479.38 C 625.831,475.801 628.785,469.003 630.436,464.273 C 632.087,459.544 638.605,451.113 644.923,445.539 C 647.385,443.077 654.769,440.615 656.911,439.737 C 661.613,437.461 668.228,436.395 669.673,431.093 C 662.008,429.341 655.297,428.308 647.385,428.308 Z M 590.833,465.847 L 592.973,465.231 C 585.675,458.667 578.376,452.103 571.077,445.539 C 571.633,447.509 572.189,449.481 572.745,451.452 L 580.719,458.957 C 585.104,463.084 589.656,466.184 590.833,465.847 Z "/>
		<path id="dp_path132" fill="#d1d9c3" fill-rule="evenodd" d="M 605.539,268.308 L 600.615,273.231 L 598.153,275.692 C 595.961,277.885 593.453,279.391 590.769,280.872 C 589.224,284.696 587.68,288.52 586.136,292.344 L 583.529,293.993 C 581.285,295.413 576.343,302.769 582.153,302.769 C 583.385,302.769 585.847,302.769 585.847,302.769 C 585.847,302.769 588.308,300.308 587.512,299.439 C 588.919,296.624 589.315,296.616 590.072,299.389 C 590.72,301.767 592.269,302.02 595.692,300.308 L 605.281,292.923 L 603.641,292.308 C 600.319,291.061 595.392,296.497 592.621,298.513 L 593.879,294.883 C 595.248,290.925 597.365,289.499 600.615,286.945 L 600.615,285.011 C 600.615,285.539 600.615,283.077 600.615,283.077 C 600.615,283.077 600.615,283.077 600.615,281.692 C 600.615,280.931 602.055,278.328 603.815,275.908 C 605.575,273.488 606.351,270.068 605.539,268.308 Z "/>
		<path id="dp_path133" fill="#d2d9c5" fill-rule="evenodd" d="M 455.385,194.461 C 455.385,194.461 455.385,196.923 454.025,198.283 C 451.175,206.292 446.077,213.748 440.744,220.308 L 435.949,226.204 L 428.308,241.231 L 428.308,243.692 L 425.847,243.692 L 423.385,253.539 L 423.385,256 L 428.308,253.539 C 428.308,251.077 430.769,248.615 430.769,247.513 C 432.864,242.387 434.313,240.792 438.804,237.907 C 440.956,230.16 443.369,223.243 448,216.615 C 452.367,210.364 458.001,207.073 465.231,204.308 Z "/>
		<path id="dp_path134" fill="#ced0c6" fill-rule="evenodd" d="M 918.153,263.385 C 912.544,263.385 907.18,264.447 902.799,267.888 C 900.783,269.473 895.508,270.769 891.077,270.769 C 891.077,270.769 891.077,270.769 891.077,272.143 L 891.077,273.515 L 886.283,275.705 L 881.488,277.896 L 871.385,280.615 L 849.231,290.461 C 839.385,297.847 839.385,297.847 832,300.308 L 804.923,315.077 C 804.923,315.077 804.923,315.077 803.692,316.308 C 803.015,316.985 800.025,318.757 797.047,320.247 C 782.545,327.496 769.636,336.724 753.231,339.692 L 753.231,342.153 L 755.692,342.153 L 760.615,342.153 L 763.077,347.077 C 765.539,347.077 768,347.077 770.333,345.847 C 776.144,344.86 781.56,344.615 787.435,344.615 C 780.967,347.107 774.497,349.585 768,352 C 773.659,352 779.316,352 784.973,352 C 793.229,350.429 801.485,348.859 809.741,347.287 L 808.72,349.331 C 808.157,350.455 792.049,353.871 772.923,356.923 L 772.923,359.385 C 785.38,359.385 797.661,358.152 809.589,361.847 C 798.107,361.847 785.704,360.763 775.385,366.769 C 775.385,380.005 775.823,394.996 768,406.153 L 763.077,413.539 C 768,416 768,416 777.847,420.923 L 785.231,423.385 C 795.077,425.847 795.077,425.847 814.769,433.231 C 817.231,433.231 822.153,435.692 823.256,436.923 L 831.743,440.615 C 830.281,441.025 828.82,441.436 827.359,441.847 L 812.308,435.692 C 809.847,435.692 807.385,433.231 805.052,432.128 L 797.796,428.565 C 800.172,430.94 802.547,433.317 804.923,435.692 C 807.299,438.068 809.675,440.444 812.051,442.82 C 805.355,438.437 798.495,433.512 790.153,433.231 L 790.153,435.692 L 792.615,435.692 L 792.615,438.153 C 795.077,438.153 797.539,440.615 799.872,441.717 C 817.469,450.36 836.056,457.375 854.411,464.257 C 861.109,466.769 867.447,469.544 873.847,472.744 C 882.527,477.084 891.161,479.829 900.483,482.595 C 909.859,485.375 920.439,487.235 923.995,486.725 C 929.4,485.953 930.461,484.539 930.461,478.107 C 930.461,473.873 928.247,462.541 925.539,452.923 C 925.539,452.923 923.077,452.923 923.077,452.923 C 921.723,452.923 920.004,451.204 919.256,449.103 C 918.215,446.176 916.773,443.9 913.103,439.385 C 909.452,434.896 907.621,431.359 905.847,425.847 C 893.539,416 893.539,416 891.077,408.615 L 883.692,401.231 C 883.692,401.231 883.692,401.231 882.461,401.231 L 881.231,401.231 C 875.948,390.849 873.847,381.107 873.847,369.231 C 873.847,362.921 874.044,352.392 879.407,348.099 C 888.088,341.147 895.759,332.177 905.847,327.385 L 908.308,327.385 C 908.308,327.385 908.308,327.385 909.675,326.085 C 910.427,325.371 912.039,322.048 913.256,318.701 C 915.607,312.235 919.707,306.439 924.324,301.377 C 925.151,300.471 927.913,295.559 930.461,290.461 C 930.461,290.461 930.461,288 931.692,285.667 C 933.328,279.296 934.297,272.351 930.349,266.923 C 928.869,264.888 923.687,263.385 918.153,263.385 Z M 878.769,312.615 L 881.231,307.692 L 856.615,320 C 847.339,323.824 838.313,327.949 829.281,332.308 C 824.529,333.948 819.779,335.589 815.027,337.231 L 821.18,337.231 C 835.28,337.231 846.043,331.507 858.104,324.795 C 866.348,320.207 874.808,316.427 883.435,312.615 L 881.103,312.615 C 881.231,312.615 878.769,312.615 878.769,312.615 Z M 846.769,374.153 C 841.683,372.848 836.609,371.529 831.56,370.085 C 828.14,369.108 825.68,369.589 825.277,371.316 C 824.615,371.692 824.615,374.153 824.615,374.153 L 834.204,376.615 C 837.399,377.803 840.251,378.597 843.385,376.461 C 844.308,376.615 846.769,374.153 846.769,374.153 Z M 844.051,395.077 C 835.945,392.645 828.089,391.385 819.692,391.385 C 826.763,393.2 833.668,395.275 840.615,397.539 C 846.849,399.569 852.941,400.677 854.153,400 L 856.357,398.769 Z M 850.788,386.807 C 849.173,385.537 840.408,383.833 831.311,383.019 L 814.769,381.539 L 819.564,383.872 C 829.627,388.768 842.651,388.016 853.725,389.113 Z M 800.973,417.231 L 789.896,413.539 C 787.521,413.539 785.145,413.539 782.769,413.539 L 791.256,416 C 795.924,417.353 801.52,419.569 803.692,420.923 C 806.813,422.868 809.116,422.561 812.051,420.923 Z M 816,324.923 L 826.82,322.461 C 817.129,319.115 807.063,324.26 797.796,327.385 C 804.179,327.385 809.709,326.355 816,324.923 Z M 847.441,422.153 L 838.524,418.461 C 837.171,418.461 835.816,418.461 834.461,418.461 L 843.205,423.385 C 848.015,426.092 852.941,427.753 854.153,427.077 L 856.357,425.847 Z M 843.453,433.452 C 837.14,428.827 827.181,427.787 819.692,425.847 C 827.921,431.148 837.115,433.28 846.512,435.692 Z M 816.033,411.028 C 810.755,407.133 803.963,407.16 797.539,406.153 C 804.799,408.737 812.111,411.141 819.435,413.539 Z M 846.457,447.957 L 840.883,445.539 C 839.563,445.539 838.243,445.539 836.923,445.539 C 844.221,449.555 851.521,453.572 858.82,457.589 L 855.425,453.983 C 852.6,450.98 850.256,449.605 846.457,447.957 Z "/>
		<path id="dp_path135" fill="#d7dcca" fill-rule="evenodd" d="M 477.539,238.769 C 477.539,238.769 475.077,238.769 475.813,238.769 L 474.087,238.769 C 461.925,251.447 449.736,263.077 440.615,278.153 L 440.615,280.615 L 450.461,278.153 C 450.461,278.153 450.461,278.153 450.591,278.025 C 459.219,269.396 468.691,263.403 480,258.461 C 480,258.461 480,258.461 481.337,257.177 C 482.073,256.471 482.073,254.197 481.337,252.125 L 480,248.357 Z "/>
		<path id="dp_path136" fill="#dbe1cc" fill-rule="evenodd" d="M 477.539,273.231 L 477.539,270.769 L 480,270.769 C 482.297,277.485 482.329,279.636 480.136,280.061 L 477.281,280.615 C 475.207,279.709 474.869,278.568 476,276.308 C 477.539,275.692 477.539,273.231 477.539,273.231 Z "/>
		<path id="dp_path137" fill="#daddcf" fill-rule="evenodd" d="M 647.385,236.308 C 647.385,236.308 647.385,238.769 646.068,240.659 C 645.001,244.183 644.099,245.553 641.273,247.915 C 638.187,250.492 636.648,250.876 632.615,251.077 C 622.769,263.385 622.769,263.385 615.385,265.847 C 612.923,270.769 612.923,270.769 600.615,283.077 C 600.615,283.077 600.615,285.539 600.615,285.011 L 600.615,286.945 C 597.365,289.499 595.248,290.925 593.879,294.883 L 592.621,298.513 C 595.392,296.497 600.319,291.061 603.641,292.308 L 605.281,292.923 L 595.692,300.308 C 595.692,300.308 595.692,302.769 595.692,302.277 C 595.692,303.36 597.192,304.247 599.027,304.247 L 602.361,304.247 C 603.003,306.597 604.213,307.015 606.749,306.137 L 610.288,304.912 L 608,312.615 L 610.461,312.615 C 610.461,312.615 610.461,312.615 611.916,312.615 C 613.288,312.615 613.559,312.415 616.711,309.052 C 619.675,305.889 622.156,304.645 626.204,303.027 C 632.245,300.611 632.272,300.651 627.692,305.231 L 623.027,309.896 L 617.847,315.077 C 625.231,315.077 625.231,315.077 627.692,315.077 L 627.692,312.615 L 635.077,310.153 C 641.988,307.447 648.276,305.508 649.052,305.847 C 649.827,306.184 649.769,307.845 648.923,309.539 C 647.385,310.153 647.385,312.615 647.385,312.615 C 647.385,312.615 647.385,315.077 647.385,314.461 C 647.385,315.38 646.979,316.308 648,316.308 L 652.308,322.461 L 654.769,322.461 L 662.153,320 C 662.153,320 664.615,320 665.847,318.769 C 668.679,317.825 676.307,317.656 675.123,313.288 L 674.204,309.896 C 670.884,305.985 667.563,302.075 664.241,298.163 C 661.059,288.299 659.433,278.993 660.509,268.476 C 661.671,257.143 662.825,254.513 667.077,253.539 L 667.077,238.769 Z M 615.385,273.231 C 603.077,288 603.077,288 603.077,290.461 L 617.847,275.692 Z M 631.049,280.615 C 635.4,277.424 630.408,278.153 627.692,278.153 C 623.169,282.676 618.259,286.583 613.18,290.461 C 619.903,288.22 625.381,284.772 631.049,280.615 Z "/>
		<path id="dp_path138" fill="#daddcf" fill-rule="evenodd" d="M 467.692,209.231 C 467.692,211.692 465.231,214.153 465.081,214.996 C 461.456,223 454.769,227.613 447.467,232.452 C 446.004,236.112 444.54,239.773 443.077,243.435 C 439.393,245.823 437.099,248.319 436.357,252.956 C 435.849,256.125 433.336,263.033 430.769,268.308 L 430.769,270.769 L 433.231,270.769 L 438.153,263.385 C 438.153,260.923 438.153,260.923 450.461,248.615 C 450.461,248.615 450.461,248.615 451.821,247.256 C 459.021,240.056 468.32,233.303 477.539,228.923 L 480,228.923 C 480,228.923 480,228.923 479.872,227.564 C 479.289,221.404 472.871,212.091 467.692,209.231 Z "/>
		<path id="dp_path139" fill="#d1d1d1" fill-rule="evenodd" d="M 625.231,512 L 625.231,484.923 L 627.692,484.923 C 627.692,504.615 627.692,504.615 625.231,512 Z "/>
		<path id="dp_path140" fill="#dde0d1" fill-rule="evenodd" d="M 647.385,312.615 C 647.385,312.615 647.385,310.153 648.923,309.539 C 649.769,307.845 649.827,306.184 649.052,305.847 C 648.276,305.508 641.988,307.447 635.077,310.153 L 630.153,317.539 L 640,317.539 L 640,315.077 Z "/>
		<path id="dp_path141" fill="lightgrey" fill-rule="evenodd" d="M 396.308,275.692 C 393.148,274.339 374.687,273.231 355.281,273.231 L 320,273.231 L 320,274.461 C 320,275.692 320,275.692 320,275.692 Z "/>
		<path id="dp_path142" fill="#e8ecd6" fill-rule="evenodd" d="M 824.615,374.153 L 834.204,376.615 C 837.399,377.803 840.251,378.597 843.385,376.461 C 844.308,376.615 846.769,374.153 846.769,374.153 Z "/>
		<path id="dp_path143" fill="#e4e6db" fill-rule="evenodd" d="M 379.077,462.769 C 373.281,456.412 371.532,455.756 366.013,457.868 L 359.643,460.308 C 363.512,460.308 358.629,459.433 356.881,458.917 C 350.864,457.141 354.071,463.009 355.193,466.251 L 349.543,461.541 C 344.777,457.571 343.611,457.395 342.1,460.416 C 340.733,463.148 339.941,463.269 338.769,460.923 C 337.231,460.308 337.231,457.847 337.231,457.847 C 337.231,457.847 337.231,457.847 335.761,457.847 C 334.953,457.847 334.953,461.112 335.761,465.103 C 336.608,469.283 337.231,473.052 337.231,477.281 L 329.847,462.769 C 329.847,467.692 329.847,467.692 334.769,482.461 C 334.769,482.461 337.231,484.923 337.231,487.256 C 338.715,490.145 339.576,491.977 342.299,493.7 C 346.693,496.48 349.539,504.339 349.539,509.539 L 344.615,512 L 337.231,499.692 L 332.308,484.923 L 329.847,484.923 L 337.36,511.749 C 346.987,522.787 357.747,534.107 369.36,543.009 C 371.996,545.031 375.261,546.081 376.615,545.343 C 376.615,544 379.077,544 379.077,544 C 379.077,544 379.077,541.539 379.077,542.02 C 379.077,537.896 382.535,528.288 386.513,527.203 C 387.676,526.885 388.753,524.385 388.904,521.645 C 389.056,518.907 390.784,511.797 392.744,505.847 C 395.752,496.713 399.917,481.724 391.256,474.253 C 387.009,470.591 383.044,466.736 379.077,462.769 Z M 359.103,500.436 C 355.212,495.963 351.268,491.576 347.077,487.385 C 348.716,490.835 350.464,494.097 352.443,497.372 C 355.411,502.287 359.609,508.308 365.948,508.308 Z M 356.387,479.713 C 354.528,476.643 353.115,474.561 350.233,472.457 C 345.531,469.025 348.284,476.305 350.021,478.033 C 354.328,482.316 358.477,486.759 362.676,491.148 L 361.029,487.907 C 359.601,485.093 358.021,482.413 356.387,479.713 Z "/>
		<path id="dp_path144" fill="#eef0de" fill-rule="evenodd" d="M 856.615,320 C 868.923,317.539 868.923,317.539 878.769,312.615 C 878.769,312.615 881.231,312.615 881.103,312.615 L 883.435,312.615 C 874.808,316.427 866.348,320.207 858.104,324.795 C 846.043,331.507 835.28,337.231 821.18,337.231 L 815.027,337.231 C 819.779,335.589 824.529,333.948 829.281,332.308 C 838.313,327.949 847.339,323.824 856.615,320 Z "/>
		<path id="dp_path145" fill="#fefee4" fill-rule="evenodd" d="M 118.153,337.231 C 108.308,339.692 108.308,339.692 103.385,352 L 103.385,354.461 C 103.385,354.461 105.847,354.461 106.069,354.461 L 108.755,354.461 C 111.605,351.421 113.917,347.477 118.153,347.077 C 120.615,347.077 120.615,347.077 123.077,347.077 L 123.077,339.692 Z "/>
	</g>
</svg>