<!DOCTYPE svg PUBLIC "-//W3C//DTD SVG 20010904//EN" "http://www.w3.org/TR/2001/REC-SVG-20010904/DTD/svg10.dtd">
<svg version="1.0" xmlns="http://www.w3.org/2000/svg" width="650px" height="525px" viewBox="0 0 6500 5250" preserveAspectRatio="xMidYMid meet">
<g id="layer101" fill="#0d0d0d" stroke="none">
<path d="M785 5001 c-47 -28 -114 -109 -125 -151 -6 -24 -23 -47 -44 -64 -72 -54 -216 -311 -216 -383 0 -49 31 -99 80 -127 43 -26 142 -26 209 -2 55 20 216 21 361 2 342 -46 820 -222 1320 -485 85 -45 156 -84 158 -86 11 -10 -11 -57 -52 -112 -43 -59 -46 -60 -167 -108 -68 -27 -151 -57 -184 -67 -80 -25 -276 -108 -405 -173 -152 -76 -303 -128 -349 -121 -121 20 -128 20 -178 -10 -93 -55 -120 -64 -185 -64 -71 0 -126 25 -161 72 -19 26 -19 29 -4 70 24 62 21 107 -8 150 -34 50 -96 78 -173 78 -167 0 -298 -118 -342 -309 -25 -105 7 -246 74 -334 l32 -42 140 4 c129 3 144 1 183 -19 47 -23 73 -69 86 -149 5 -33 20 -57 59 -101 28 -31 56 -65 62 -75 10 -17 15 -18 50 -7 81 24 147 73 193 144 41 63 47 68 100 83 31 9 103 42 161 73 254 135 567 282 602 282 24 0 23 -7 -11 -127 -22 -81 -36 -112 -67 -149 -81 -96 -104 -130 -104 -153 0 -13 18 -47 39 -75 22 -28 49 -75 60 -105 l20 -55 -53 -135 c-103 -260 -125 -344 -152 -576 -32 -277 -31 -326 7 -482 35 -144 57 -193 135 -308 135 -197 244 -298 410 -381 82 -40 97 -45 150 -42 58 3 59 2 89 -37 40 -51 75 -71 175 -96 79 -20 101 -21 539 -16 503 5 522 7 690 76 162 68 242 127 388 292 173 197 231 291 286 465 55 174 75 551 40 736 -14 74 -15 91 -4 98 28 16 8 135 -42 250 -67 156 -71 176 -72 360 -1 188 -1 186 -90 290 -51 60 -87 132 -72 146 8 8 309 -149 368 -192 58 -42 117 -106 164 -177 20 -31 49 -60 63 -65 15 -6 72 -13 127 -17 94 -5 104 -8 194 -55 51 -28 107 -50 124 -50 41 0 147 58 147 81 0 9 -19 34 -42 54 -51 43 -53 40 81 109 118 60 126 61 196 26 126 -63 230 -20 318 131 97 165 122 406 50 481 -42 44 -138 88 -193 88 -86 0 -176 -79 -199 -175 -22 -91 -106 -192 -198 -239 -53 -27 -117 -20 -253 28 -195 68 -574 217 -774 305 -99 43 -212 90 -251 104 -101 36 -328 141 -377 174 -43 29 -88 85 -88 110 0 7 19 21 43 30 23 9 103 48 177 86 224 116 277 142 480 230 272 118 309 133 360 147 25 6 111 38 191 70 211 84 243 91 469 99 185 6 198 8 246 33 70 37 114 76 114 101 0 12 -14 51 -31 87 -17 36 -44 97 -59 137 -15 40 -37 84 -49 99 -12 15 -21 32 -21 39 0 6 -9 20 -21 31 -12 10 -30 36 -41 58 -32 62 -64 86 -115 86 -60 0 -74 -9 -179 -115 -50 -50 -129 -117 -175 -147 -126 -84 -595 -313 -839 -410 -205 -82 -657 -280 -834 -366 l-200 -97 -136 -3 -136 -4 -169 82 c-261 126 -587 272 -830 371 -281 114 -657 301 -774 385 -50 35 -118 97 -153 136 -98 112 -148 159 -184 174 -51 21 -191 19 -229 -5z"/>
</g>
<g id="layer102" fill="#f5f5f5" stroke="none">
<path d="M920 4964 c0 -9 32 -33 44 -34 5 0 1 9 -9 20 -18 20 -35 26 -35 14z"/>
<path d="M5602 4884 c-62 -31 -67 -48 -12 -42 44 4 52 -5 19 -22 -40 -22 -10 -22 55 0 36 13 66 24 66 25 0 1 -7 16 -16 33 -19 40 -42 41 -112 6z"/>
<path d="M5740 4894 c0 -6 15 -23 33 -40 l32 -29 -30 35 c-16 19 -31 37 -32 39 -2 2 -3 0 -3 -5z"/>
<path d="M950 4885 c0 -2 15 -12 33 -20 l32 -16 -25 20 c-24 20 -40 26 -40 16z"/>
<path d="M790 4852 c0 -21 79 -100 107 -106 14 -4 23 -10 20 -13 -18 -17 -117 47 -149 96 -17 25 -18 25 -18 4 0 -35 20 -70 49 -83 16 -8 21 -14 13 -17 -8 -3 -31 9 -52 26 -46 37 -55 39 -39 9 9 -18 9 -20 -4 -15 -28 11 -27 -6 5 -46 44 -55 84 -77 140 -77 38 0 50 5 67 26 21 27 27 69 13 91 -4 6 -26 19 -50 28 -23 10 -56 34 -72 53 -17 20 -30 31 -30 24z"/>
<path d="M930 4842 c0 -9 160 -96 165 -90 4 4 -149 98 -159 98 -3 0 -6 -4 -6 -8z"/>
<path d="M1225 4790 c27 -27 51 -50 54 -50 3 0 -17 23 -44 50 -27 28 -51 50 -54 50 -3 0 17 -22 44 -50z"/>
<path d="M5369 4813 l-24 -28 30 25 c17 14 32 26 34 28 2 1 0 2 -6 2 -5 0 -20 -12 -34 -27z"/>
<path d="M5700 4794 c-42 -17 -57 -39 -66 -93 -6 -39 -6 -40 31 -47 20 -3 58 -4 83 0 l47 6 -25 -20 c-14 -11 -42 -30 -62 -42 -47 -27 -49 -55 -10 -104 32 -41 54 -43 98 -9 18 14 37 25 43 25 6 0 18 11 27 25 16 25 16 28 -6 76 -13 27 -30 55 -37 61 -7 6 -13 25 -13 42 0 21 -10 42 -29 64 -34 36 -33 36 -81 16z"/>
<path d="M5439 4774 c-7 -9 -30 -23 -51 -31 -35 -14 -51 -33 -28 -33 16 0 77 42 89 62 14 22 8 23 -10 2z"/>
<path d="M626 4699 c-10 -6 -36 -28 -57 -49 -45 -43 -52 -85 -19 -115 22 -20 27 -7 10 26 -13 24 -3 25 23 2 18 -17 21 -16 68 37 50 57 58 77 37 98 -15 15 -37 15 -62 1z"/>
<path d="M5459 4680 c-76 -43 -140 -72 -145 -67 -2 2 24 23 58 45 65 43 71 59 8 20 -19 -11 -122 -65 -228 -119 -144 -74 -203 -99 -231 -99 -31 0 -40 -5 -49 -25 -6 -14 -18 -25 -26 -25 -7 0 -19 -7 -27 -16 -8 -10 -23 -14 -41 -12 -18 3 -28 0 -28 -8 0 -19 -58 -47 -84 -40 -24 6 -88 -14 -145 -44 -20 -11 -79 -36 -131 -56 -52 -21 -100 -41 -105 -45 -6 -4 -60 -25 -121 -47 -61 -22 -128 -50 -150 -64 -37 -22 -177 -88 -218 -102 -10 -4 -17 -9 -14 -11 4 -4 35 3 83 20 16 6 15 3 -5 -14 -14 -11 -31 -21 -38 -21 -21 0 -172 -94 -169 -105 4 -12 68 -7 81 6 21 20 28 7 8 -14 -12 -13 -22 -26 -22 -30 0 -3 36 9 80 27 107 46 110 23 3 -29 l-48 -23 57 4 c55 4 191 51 233 80 11 8 26 14 35 14 8 0 -12 -16 -45 -35 -68 -39 -61 -45 16 -15 28 12 53 19 55 17 2 -2 -30 -21 -71 -42 -41 -21 -72 -41 -70 -44 3 -3 97 41 208 97 111 56 227 110 257 121 134 47 241 91 320 131 47 23 125 58 175 77 49 19 124 52 165 73 53 27 98 42 155 50 44 7 122 23 174 36 51 13 120 24 152 24 56 0 129 24 129 42 0 4 -19 8 -42 9 l-43 1 45 11 45 10 -39 7 c-21 4 -47 5 -57 3 -9 -3 -26 0 -36 6 -15 9 -11 10 23 11 28 0 44 5 48 15 3 8 0 15 -7 15 -35 2 -123 13 -126 16 -2 2 11 4 30 5 19 0 43 4 54 9 14 6 3 9 -38 9 -33 1 -71 -5 -85 -13 -23 -11 -98 -43 -152 -63 -13 -5 -13 -4 0 10 20 21 121 74 162 85 l33 9 -35 11 -35 10 40 2 c22 0 56 10 75 20 l35 20 -52 -4 c-56 -4 -65 2 -34 21 18 11 27 63 11 63 -4 0 -31 -14 -61 -30z m54 -300 c-56 -10 -106 -21 -111 -24 -5 -3 -44 -12 -88 -21 -43 -8 -87 -17 -97 -20 -36 -7 -6 9 36 21 23 6 69 20 102 29 94 27 125 33 195 33 l65 0 -102 -18z m-391 -62 c-13 -13 -84 -39 -90 -33 -6 5 70 44 88 45 11 0 11 -3 2 -12z"/>
<path d="M1430 4636 c0 -3 14 -12 30 -21 17 -9 30 -13 30 -11 0 3 -13 12 -30 21 -16 9 -30 13 -30 11z"/>
<path d="M655 4559 l-47 -51 28 -29 c41 -43 75 -39 129 16 44 44 57 75 32 75 -7 0 -30 9 -52 20 -22 11 -40 20 -41 20 -1 0 -23 -23 -49 -51z"/>
<path d="M1080 4571 c105 -54 171 -93 166 -98 -7 -8 -95 17 -102 29 -3 5 -13 6 -23 3 -9 -3 -54 6 -100 19 -77 23 -84 23 -100 8 -9 -10 -33 -26 -54 -37 -20 -11 -37 -23 -37 -26 0 -4 24 -13 53 -19 91 -22 88 -30 -10 -29 -75 1 -98 -2 -120 -17 l-28 -19 40 -5 40 -5 -34 -14 c-32 -14 -32 -15 -12 -23 34 -12 112 -12 156 2 35 10 47 9 95 -9 30 -12 71 -21 90 -21 47 0 188 -37 375 -99 210 -68 255 -86 328 -126 35 -19 88 -42 118 -51 29 -9 87 -32 129 -51 88 -41 351 -135 358 -128 3 2 -4 8 -14 12 -10 4 -62 24 -114 46 -52 21 -117 47 -145 57 -27 9 -102 41 -165 70 -63 29 -145 65 -182 81 -136 57 -144 72 -17 33 111 -34 277 -98 347 -133 32 -15 84 -38 118 -49 34 -12 76 -30 95 -40 19 -11 61 -28 94 -37 54 -15 60 -15 71 -1 6 9 20 16 30 16 16 1 15 3 -6 16 l-25 15 33 -5 c20 -4 31 -2 27 4 -3 6 -12 10 -19 10 -7 0 -21 9 -31 20 -24 27 -5 26 53 -4 26 -13 58 -27 72 -30 36 -10 -48 38 -123 70 -34 15 -114 50 -177 79 -181 83 -294 129 -445 180 -139 47 -341 136 -463 203 -35 19 -65 33 -67 30 -2 -2 50 -32 116 -67 66 -35 118 -65 115 -68 -9 -9 -289 108 -344 143 -46 31 -191 95 -210 93 -4 0 18 -13 48 -28z m804 -329 c6 -10 -30 -9 -40 1 -4 4 2 7 14 7 11 0 23 -4 26 -8z m109 -46 c9 -7 17 -16 17 -19 0 -8 -59 13 -66 24 -8 14 29 10 49 -5z m-76 -48 c8 -6 15 -3 22 9 10 17 11 17 17 -3 3 -11 18 -26 32 -32 25 -11 25 -11 -13 -8 -46 5 -56 7 -107 26 -21 8 -38 17 -38 20 0 9 73 -1 87 -12z"/>
<path d="M5540 4580 l-25 -8 25 0 c14 0 34 3 45 8 l20 9 -20 -1 c-11 0 -31 -4 -45 -8z"/>
<path d="M1007 4556 c27 -20 104 -48 111 -41 5 5 -66 38 -108 50 l-25 7 22 -16z"/>
<path d="M491 4474 c-25 -42 -26 -48 -6 -64 21 -17 12 -24 -14 -10 -17 8 -21 8 -21 -3 0 -8 7 -20 15 -27 13 -11 13 -15 3 -21 -16 -10 -7 -19 60 -54 60 -32 92 -29 123 15 34 48 33 66 -5 107 -41 45 -60 38 -24 -9 14 -18 23 -39 21 -46 -6 -17 -85 65 -107 111 -9 21 -19 37 -20 37 -2 0 -13 -16 -25 -36z"/>
<path d="M5874 4489 c-10 -12 -38 -32 -61 -46 -69 -40 -46 -68 31 -39 58 22 79 46 70 80 -8 31 -15 32 -40 5z"/>
<path d="M1720 4485 c0 -7 61 -37 66 -33 2 3 -12 12 -31 21 -19 9 -35 15 -35 12z"/>
<path d="M4750 4470 c-19 -11 -30 -19 -25 -19 6 0 26 8 45 19 19 11 31 19 25 19 -5 0 -26 -8 -45 -19z"/>
<path d="M1715 4390 c33 -17 65 -29 70 -29 12 1 -106 58 -120 58 -5 0 17 -13 50 -29z"/>
<path d="M2371 4116 c7 -7 170 -76 177 -76 12 1 -51 33 -112 57 -60 23 -73 27 -65 19z"/>
<path d="M3730 3946 c-35 -16 -100 -57 -100 -62 0 -2 32 12 70 31 39 19 70 37 70 40 0 7 -12 5 -40 -9z"/>
<path d="M3188 3853 c23 -2 59 -2 80 0 20 2 1 4 -43 4 -44 0 -61 -2 -37 -4z"/>
<path d="M3290 3807 c-16 -8 -27 -25 -32 -52 -8 -35 -6 -42 13 -57 24 -20 46 -22 83 -8 24 9 26 15 26 64 0 40 -4 55 -16 60 -24 9 -46 7 -74 -7z"/>
<path d="M3128 3803 c-32 -8 -20 -112 16 -135 6 -4 24 -8 39 -8 32 0 45 23 27 45 -9 10 -9 15 -1 15 6 0 11 17 11 39 0 39 0 40 -30 31 -28 -8 -34 -6 -31 13 1 7 -3 7 -31 0z"/>
<path d="M2988 3788 c-10 -7 -19 -28 -20 -47 -2 -28 2 -37 22 -47 20 -11 27 -11 41 1 21 20 29 19 29 -2 0 -15 2 -14 15 3 18 24 19 68 2 83 -23 18 -71 23 -89 9z"/>
<path d="M3447 3793 c-9 -2 -25 -19 -33 -36 -16 -31 -16 -31 19 -63 54 -50 105 -25 91 46 -6 27 -38 62 -54 59 -3 -1 -13 -3 -23 -6z"/>
<path d="M2873 3761 c-19 -15 -33 -37 -33 -49 0 -28 -5 -28 -38 3 -32 30 -53 32 -75 7 -27 -30 -9 -75 34 -84 28 -6 37 -3 51 15 14 18 18 19 33 7 9 -7 34 -14 56 -14 l39 -1 0 47 c0 49 -14 98 -27 98 -5 -1 -23 -13 -40 -29z m16 -78 c1 -16 -5 -23 -17 -23 -27 0 -33 10 -17 27 8 8 15 24 16 36 0 21 1 21 9 2 5 -11 9 -30 9 -42z"/>
<path d="M3556 3738 c-32 -45 -5 -104 42 -92 28 8 36 36 22 79 -14 41 -41 46 -64 13z"/>
<path d="M3800 3746 c0 -8 5 -18 10 -21 6 -3 10 1 10 9 0 8 -4 18 -10 21 -5 3 -10 -1 -10 -9z"/>
<path d="M3654 3726 c-10 -42 0 -78 29 -100 36 -27 61 -13 65 37 2 28 -3 42 -22 62 -32 32 -64 33 -72 1z"/>
<path d="M3766 3683 c-25 -91 -12 -151 25 -117 27 25 35 79 15 109 -19 29 -33 32 -40 8z"/>
<path d="M2628 3663 c-13 -3 -18 -15 -18 -43 0 -48 18 -62 26 -21 8 40 24 40 24 0 0 -46 24 -31 31 19 3 23 3 44 1 47 -6 6 -39 5 -64 -2z"/>
<path d="M2577 3643 c-10 -18 -7 -123 2 -123 7 0 11 26 11 65 0 61 -3 75 -13 58z"/>
<path d="M3293 3642 c-46 -14 -63 -39 -63 -91 0 -74 -19 -73 -22 1 l-3 63 -82 0 -83 0 0 -32 c0 -17 -5 -35 -12 -39 -8 -5 -9 0 -5 15 6 26 -1 51 -14 51 -5 0 -10 -35 -10 -77 -1 -67 -2 -72 -9 -38 -5 22 -6 53 -2 69 5 27 3 29 -19 23 -13 -4 -27 -7 -31 -7 -14 0 -19 -40 -7 -62 12 -22 13 -22 25 17 l12 40 1 -62 c1 -36 -3 -63 -9 -63 -5 0 -10 -8 -10 -18 0 -10 -5 -23 -12 -30 -9 -9 -7 -16 7 -32 16 -18 20 -19 27 -5 5 8 7 19 4 23 -2 4 0 14 5 22 7 11 9 -1 7 -38 -1 -30 3 -57 10 -64 7 -7 12 -21 13 -32 0 -21 0 -21 8 -1 5 11 6 25 4 31 -2 7 0 15 6 19 9 5 15 -16 13 -45 0 -3 15 -5 34 -5 30 0 34 3 34 28 0 15 5 27 10 27 6 0 10 -8 10 -18 0 -35 58 -67 88 -49 6 5 12 21 12 38 0 16 5 29 10 29 6 0 10 -6 10 -14 0 -12 20 -26 36 -26 2 0 2 11 -2 24 -4 17 -1 25 12 30 10 4 21 1 25 -5 4 -8 10 -6 18 7 9 17 10 17 11 2 0 -10 -8 -22 -19 -27 -25 -14 -55 -61 -44 -71 4 -4 24 -11 43 -15 31 -7 33 -6 21 8 -17 21 -5 43 15 26 8 -6 14 -17 14 -25 0 -7 7 -20 16 -28 18 -19 9 -20 -52 -6 -33 7 -49 6 -73 -6 -36 -18 -31 -39 8 -29 50 13 72 12 104 -5 17 -9 44 -20 60 -24 23 -5 27 -12 27 -40 0 -67 -11 -96 -36 -96 -20 0 -23 -4 -18 -27 4 -23 -2 -35 -30 -62 -31 -30 -36 -41 -36 -80 0 -49 16 -47 23 4 2 19 5 12 6 -22 0 -28 -3 -53 -8 -55 -4 -1 -10 -24 -13 -50 -4 -34 -2 -48 8 -52 8 -3 14 -15 14 -26 0 -24 13 -26 30 -5 7 8 22 15 33 15 19 0 19 -1 2 -20 -9 -10 -21 -40 -26 -66 -5 -25 -20 -59 -33 -75 -33 -38 -45 -155 -23 -219 14 -42 15 -43 28 -22 9 14 24 22 40 22 14 0 34 8 43 19 16 17 16 24 1 92 -20 96 -19 131 3 160 10 13 21 32 25 42 3 9 11 17 17 17 6 0 26 11 43 24 18 13 49 28 70 31 21 4 49 19 62 33 34 36 114 46 164 20 20 -11 64 -22 99 -25 82 -7 155 -50 193 -113 24 -39 28 -56 28 -130 1 -48 5 -90 10 -95 5 -6 11 -21 14 -35 4 -21 4 -20 6 8 1 40 17 42 26 2 4 -17 16 -35 27 -41 29 -16 54 12 63 69 3 26 9 56 11 67 3 11 8 43 13 70 18 112 44 136 93 86 62 -63 79 -60 96 16 9 39 7 44 -45 119 -30 44 -79 116 -108 162 -30 45 -59 82 -65 82 -6 0 -16 12 -22 28 -6 15 -25 42 -42 60 -27 29 -35 32 -91 32 -41 0 -73 6 -100 20 -22 11 -50 20 -62 20 -44 0 -88 27 -145 88 -64 70 -85 118 -70 161 7 20 7 32 0 39 -8 8 -7 20 1 40 7 17 11 41 9 54 l-5 23 -10 -25 -11 -25 -7 27 c-4 17 -12 25 -20 21 -9 -3 -17 5 -21 21 -7 28 -39 42 -75 33 -13 -4 -24 1 -32 14 -14 22 -44 25 -72 5 -11 -7 -31 -17 -44 -21 l-24 -7 21 27 c24 30 21 42 -12 55 -39 15 -85 -24 -86 -73 0 -16 -4 -26 -10 -22 -5 3 -10 19 -10 34 0 16 -10 37 -23 49 -24 23 -28 24 -64 14z m7 -66 c0 -6 -7 -19 -15 -30 -13 -18 -14 -17 -20 7 -4 14 -4 30 -1 36 8 13 36 3 36 -13z m-195 -81 c4 -22 9 -60 11 -85 3 -40 2 -42 -10 -24 -8 11 -14 47 -15 88 -1 76 3 82 14 21z m536 28 c3 -46 -40 -190 -86 -285 -31 -67 -31 -88 2 -88 9 0 11 -8 7 -24 -3 -13 -1 -27 5 -30 6 -4 11 -2 11 4 0 6 5 8 11 5 6 -4 8 -14 4 -22 -3 -9 4 -31 15 -50 25 -42 25 -41 -4 -36 -16 3 -28 15 -35 34 -5 16 -14 29 -19 29 -6 0 -13 12 -16 26 -4 14 -27 46 -51 71 -25 25 -45 49 -45 53 0 4 20 15 44 24 42 16 45 20 90 122 26 59 48 124 49 145 2 39 16 55 18 22z m-342 -121 c1 -24 -3 -41 -8 -38 -5 3 -9 32 -9 63 0 41 2 52 8 38 5 -11 9 -39 9 -63z m158 -44 c-9 -18 -18 -41 -21 -50 -6 -19 -26 -25 -26 -8 0 13 28 69 43 88 18 22 21 3 4 -30z m366 -163 c8 -23 6 -31 -9 -42 -26 -19 -50 -18 -34 2 7 8 10 22 6 30 -3 8 -1 15 4 15 5 0 7 7 3 16 -4 11 -2 15 7 12 8 -2 18 -17 23 -33z m-86 -168 c9 -18 29 -48 44 -67 44 -52 38 -80 -6 -31 -19 21 -35 44 -35 50 0 6 -7 11 -16 11 -11 0 -15 6 -11 20 3 11 1 23 -4 26 -5 3 -9 12 -9 20 0 22 18 8 37 -29z m393 -11 c0 -27 54 -84 86 -92 42 -11 26 -20 -36 -19 -51 0 -60 3 -60 18 0 10 -8 20 -17 24 -31 11 -41 23 -36 43 3 11 12 20 20 20 10 0 11 4 3 19 -17 33 -12 43 15 25 14 -9 25 -26 25 -38z m-460 3 c0 -11 -4 -17 -10 -14 -5 3 -10 15 -10 26 0 11 5 17 10 14 6 -3 10 -15 10 -26z m152 -56 c11 -12 17 -26 13 -32 -7 -13 -50 34 -64 72 -14 35 0 43 17 10 8 -15 23 -38 34 -50z m-72 -43 c42 0 37 -16 -11 -40 -49 -26 -64 -22 -72 19 -7 34 -27 42 -27 11 0 -24 -15 -27 -24 -4 -8 22 -8 24 5 24 7 0 18 8 25 18 12 16 13 16 18 0 17 -50 20 -52 24 -13 l4 40 14 -27 c11 -21 22 -28 44 -28z m-160 -25 c5 -14 16 -25 25 -25 8 0 15 -6 15 -14 0 -12 -16 -21 -57 -31 -15 -4 -17 31 -3 40 6 3 7 17 4 31 -8 32 4 31 16 -1z m739 -55 c35 -32 43 -46 43 -75 0 -19 3 -33 7 -31 11 7 28 -7 35 -31 9 -27 -14 -32 -34 -8 -8 9 -21 13 -36 9 -34 -9 -49 4 -29 26 26 29 27 59 1 75 -19 13 -46 54 -46 70 0 12 19 1 59 -35z m-529 16 c0 -7 -9 -16 -21 -19 -12 -3 -19 -10 -16 -14 3 -5 2 -15 -3 -23 -8 -12 -13 -11 -30 7 -31 34 -25 49 17 44 6 -1 14 3 18 9 9 15 35 12 35 -4z m296 3 c4 -7 -1 -9 -12 -7 -11 2 -28 -5 -39 -16 -18 -19 -28 -20 -100 -15 -47 3 -65 7 -42 8 20 2 40 4 45 6 4 1 24 5 45 9 20 5 40 12 43 17 7 13 51 11 60 -2z m-278 -56 c-4 -22 -38 -30 -38 -10 0 14 13 24 33 26 5 1 7 -7 5 -16z m282 -137 c29 -13 90 -91 90 -114 -1 -14 -3 -13 -11 3 -35 64 -64 95 -98 106 -42 13 -71 35 -31 24 14 -4 36 -12 50 -19z m310 -14 c0 -10 5 -23 12 -30 9 -9 6 -12 -16 -12 -22 0 -27 4 -22 16 3 9 6 22 6 30 0 8 5 14 10 14 6 0 10 -8 10 -18z m-200 -249 c0 -66 -15 -58 -17 10 -1 40 1 56 8 46 5 -7 9 -33 9 -56z"/>
<path d="M3842 3621 c-9 -5 -12 -24 -10 -52 3 -38 6 -44 27 -47 23 -4 23 -2 16 45 -8 54 -15 66 -33 54z"/>
<path d="M2467 3579 c-16 -21 -26 -39 -24 -39 7 0 59 71 56 75 -2 2 -17 -14 -32 -36z"/>
<path d="M2855 3560 c-3 -5 -16 -10 -29 -10 -12 0 -27 -5 -34 -12 -15 -15 -16 -54 -2 -63 13 -8 13 -52 -1 -60 -7 -5 -5 -13 6 -25 10 -11 15 -29 12 -47 -4 -28 -4 -28 -6 4 -3 67 -18 38 -24 -45 -4 -63 -2 -93 8 -107 7 -12 15 -30 18 -40 2 -11 6 0 7 25 5 92 18 109 19 25 1 -93 8 -125 26 -125 14 0 11 59 -6 116 -6 18 -7 43 -4 56 3 13 -3 80 -15 148 -14 84 -17 127 -10 134 7 7 10 1 10 -18 0 -36 37 -163 50 -171 6 -3 10 -16 10 -28 0 -16 3 -18 11 -10 9 9 8 33 -5 95 -9 46 -16 94 -16 108 1 25 1 25 17 5 15 -20 15 -19 9 5 -3 14 -6 31 -6 38 0 14 -36 16 -45 2z"/>
<path d="M2737 3503 c-6 -12 1 -94 11 -138 l10 -40 1 43 c0 24 6 53 12 65 8 13 8 22 2 24 -6 2 -8 15 -5 28 3 18 0 25 -11 25 -9 0 -18 -3 -20 -7z"/>
<path d="M2675 3480 c-3 -5 -19 -10 -36 -10 -16 0 -29 -4 -29 -9 0 -5 -10 -11 -22 -13 -26 -3 -36 -39 -20 -72 6 -12 13 -28 15 -36 3 -8 6 -3 6 13 1 28 16 37 24 15 5 -15 37 52 37 79 0 15 4 14 20 -7 l20 -25 0 38 c0 38 -4 45 -15 27z"/>
<path d="M3838 3478 c-3 -7 -2 -38 2 -68 4 -30 8 -49 9 -42 0 8 9 30 18 49 11 25 13 40 6 51 -13 21 -29 26 -35 10z"/>
<path d="M3960 3400 c0 -5 8 -14 18 -19 15 -9 14 -10 -9 -11 -28 0 -79 -21 -79 -33 0 -4 15 -17 33 -28 l32 -21 -37 4 c-40 4 -51 -6 -18 -17 11 -3 20 -12 20 -18 0 -23 98 -78 200 -112 56 -19 109 -35 117 -35 8 0 29 -10 46 -22 34 -24 137 -88 143 -88 5 0 178 -80 209 -97 46 -25 73 -38 167 -82 99 -47 169 -109 197 -174 11 -24 31 -54 47 -66 32 -25 45 -20 19 9 -18 19 -9 29 11 11 5 -5 29 -12 54 -16 42 -6 44 -6 25 8 -31 24 -14 27 43 8 39 -12 65 -30 97 -64 23 -26 47 -47 53 -47 6 0 24 -12 41 -26 47 -39 79 -44 128 -20 23 12 43 24 43 28 0 4 -26 21 -58 37 -47 24 -61 37 -77 72 -16 35 -27 45 -55 51 -19 5 -44 13 -56 19 -20 10 -51 6 -109 -16 -16 -7 -18 -6 -7 6 22 24 14 63 -17 80 -15 9 -31 26 -34 39 -5 21 -5 21 13 5 11 -10 26 -15 35 -11 13 5 12 10 -7 41 -32 49 -67 60 -173 57 -68 -3 -95 0 -110 11 -19 14 -18 15 20 15 22 1 71 4 109 8 45 4 81 2 106 -6 21 -7 43 -11 51 -8 22 7 -124 46 -181 48 -39 1 -86 14 -165 46 -124 50 -176 86 -73 50 36 -13 70 -26 75 -29 12 -7 63 -17 63 -12 0 5 -151 81 -180 90 -13 4 -128 59 -255 122 -126 63 -252 121 -280 130 -27 9 -88 34 -134 55 -89 40 -101 44 -101 28z m995 -625 c33 -20 42 -30 38 -45 -7 -27 -12 -25 -57 26 -44 51 -41 54 19 19z m75 -20 c12 -15 5 -39 -9 -30 -12 7 -21 45 -11 45 4 0 13 -7 20 -15z"/>
<path d="M4063 3403 c10 -9 221 -93 225 -88 3 3 -127 58 -192 82 -22 7 -37 10 -33 6z"/>
<path d="M534 3337 c-66 -39 -97 -74 -136 -156 -49 -102 -61 -191 -33 -234 9 -14 18 -46 19 -71 3 -63 34 -95 87 -92 64 5 69 15 69 131 0 56 3 117 7 136 7 36 66 100 142 152 30 21 41 33 30 35 -24 4 -98 -31 -152 -72 -27 -21 -51 -35 -54 -33 -2 3 16 24 40 48 25 23 43 47 41 53 -5 13 53 52 105 71 34 13 35 14 8 14 -34 1 -197 -98 -225 -137 -11 -15 -23 -24 -27 -20 -9 9 87 111 139 149 21 16 34 29 27 29 -14 0 -149 -98 -169 -122 -7 -9 -26 -44 -43 -78 -16 -34 -32 -60 -35 -57 -12 12 65 136 123 198 36 38 64 69 62 69 -2 -1 -13 -6 -25 -13z"/>
<path d="M2677 3332 c-4 -4 1 -21 9 -37 15 -30 9 -80 -7 -54 -16 27 -30 -4 -14 -33 7 -15 15 -38 18 -50 l4 -23 11 25 c9 22 11 18 12 -35 1 -33 5 -80 9 -105 7 -35 9 -19 10 74 1 99 -3 130 -20 180 -25 70 -25 70 -32 58z"/>
<path d="M2310 3301 c-37 -10 -122 -53 -154 -79 -51 -39 -65 -21 -18 24 25 24 22 24 -43 -10 -39 -20 -85 -40 -104 -46 -30 -8 -33 -7 -28 10 3 11 2 20 -1 20 -3 0 -54 -24 -112 -53 -58 -30 -121 -60 -140 -67 -19 -8 -61 -29 -93 -48 -31 -18 -72 -38 -90 -44 -76 -25 -153 -68 -175 -97 -12 -17 -41 -41 -65 -53 -44 -23 -135 -58 -150 -58 -17 0 36 37 86 60 26 12 46 25 43 27 -2 3 -13 0 -24 -6 -12 -6 -31 -11 -44 -11 -13 0 -33 -7 -44 -15 -25 -19 -34 -19 -34 0 0 8 8 15 19 15 21 0 154 60 148 67 -3 2 -20 -3 -38 -11 -19 -8 -59 -22 -89 -31 -30 -9 -83 -32 -117 -51 -52 -29 -68 -33 -101 -28 -50 8 -63 -9 -27 -38 34 -26 27 -33 -13 -12 -18 8 -40 14 -50 12 -12 -3 -4 -11 28 -28 30 -16 40 -25 28 -28 -9 -2 -30 4 -47 12 -50 26 -55 18 -18 -23 22 -25 38 -55 42 -78 12 -73 24 -79 77 -42 36 26 49 17 20 -14 -26 -27 -27 -44 -7 -71 8 -11 15 -28 15 -38 0 -14 8 -18 38 -18 45 1 69 13 122 64 39 37 47 57 34 90 -7 17 -44 22 -44 6 0 -17 -44 -11 -70 10 l-25 19 28 26 c15 14 27 33 27 41 0 8 16 22 35 30 46 19 55 17 28 -5 -25 -21 -21 -31 14 -31 12 0 23 -4 23 -10 0 -5 -12 -10 -26 -10 -22 0 -25 -2 -14 -15 27 -33 75 -17 294 94 117 60 231 120 252 135 25 17 40 22 43 15 2 -7 -3 -15 -11 -20 -8 -5 -26 -17 -39 -29 -20 -17 -21 -19 -4 -13 31 11 185 94 185 100 0 3 -7 2 -16 -1 -35 -14 7 22 50 43 24 11 58 35 76 53 36 35 51 45 118 77 34 16 42 24 37 39 -7 24 53 80 96 89 16 3 34 12 40 19 6 8 17 14 23 14 7 0 21 7 32 15 20 15 14 17 -26 6z m-1101 -520 c-20 -17 -37 -19 -69 -11 -3 1 15 9 40 19 53 21 62 19 29 -8z"/>
<path d="M4310 3302 c8 -5 26 -13 40 -16 17 -5 20 -4 10 2 -8 5 -26 13 -40 16 -17 5 -20 4 -10 -2z"/>
<path d="M683 3283 c-12 -2 -27 -12 -35 -20 -11 -15 -11 -16 7 -9 11 5 30 11 43 13 12 3 25 9 28 14 5 9 -4 10 -43 2z"/>
<path d="M1915 3255 c-27 -13 -45 -24 -38 -24 15 -1 103 37 103 44 0 8 -12 5 -65 -20z"/>
<path d="M6090 3263 c0 -5 7 -17 15 -27 31 -41 15 -48 -25 -12 -55 50 -77 46 -29 -6 21 -23 37 -44 35 -46 -3 -2 -21 8 -43 21 -21 14 -49 28 -63 31 -18 5 -15 1 11 -13 53 -29 110 -101 81 -101 -5 0 -17 9 -28 21 -10 12 -31 27 -46 35 -32 16 -62 19 -33 2 29 -15 75 -60 75 -72 0 -5 -9 0 -20 11 -21 23 -58 39 -67 29 -4 -3 1 -6 10 -6 25 0 47 -40 47 -87 0 -33 -7 -50 -30 -77 -17 -19 -37 -57 -46 -85 -8 -27 -30 -71 -50 -96 -33 -44 -34 -48 -20 -70 9 -14 34 -29 58 -36 39 -10 48 -9 88 12 52 28 104 93 160 202 39 76 40 82 40 175 0 79 -4 103 -20 130 -25 40 -101 90 -100 65z"/>
<path d="M2373 3230 c-32 -13 -29 -22 5 -15 l27 6 -30 -25 c-16 -14 -24 -26 -17 -26 15 0 62 45 62 60 0 12 -17 12 -47 0z"/>
<path d="M2574 3219 c-3 -6 -25 -19 -48 -29 -55 -24 -135 -102 -142 -140 -4 -16 -10 -27 -15 -24 -5 3 -7 10 -3 15 6 10 -14 79 -22 79 -24 0 -44 -25 -44 -55 0 -18 -5 -37 -11 -41 -8 -4 -9 0 -4 15 3 11 2 29 -4 38 -9 15 -10 14 -11 -10 0 -16 -5 -37 -10 -47 -13 -24 7 -123 23 -117 7 2 13 27 15 55 2 29 8 52 13 52 6 0 8 -9 4 -20 -3 -11 -3 -25 1 -32 12 -19 23 22 17 62 -2 19 0 46 6 60 8 20 10 11 11 -50 2 -84 12 -131 23 -113 4 7 8 28 9 48 2 42 14 54 24 23 6 -21 7 -21 20 -3 13 17 14 15 14 -25 0 -24 3 -40 7 -37 3 4 5 34 4 67 -2 69 10 102 20 55 5 -30 6 -30 19 15 7 25 12 57 12 73 0 15 4 27 9 27 5 0 9 -11 9 -24 0 -14 5 -28 10 -31 6 -3 10 -15 10 -25 0 -10 4 -21 8 -24 4 -2 7 19 6 47 -3 80 10 81 17 2 4 -38 15 -92 24 -119 17 -44 20 -47 31 -31 7 10 11 22 8 26 -3 5 -9 46 -14 91 -17 153 -26 180 -46 147z"/>
<path d="M3081 3214 c-13 -9 -32 -35 -42 -58 -20 -44 -26 -101 -9 -91 6 3 10 18 10 32 0 40 60 93 104 93 40 0 45 6 19 26 -24 18 -54 17 -82 -2z"/>
<path d="M2273 3209 c-18 -5 -33 -11 -33 -13 0 -2 15 -2 33 -1 17 2 41 3 52 4 17 1 18 3 5 11 -17 11 -15 11 -57 -1z"/>
<path d="M830 3133 c0 -21 95 -92 106 -80 3 2 -9 10 -26 17 -17 7 -42 26 -55 42 -14 16 -25 26 -25 21z"/>
<path d="M2197 3108 c-31 -17 -55 -33 -53 -36 5 -4 116 56 116 64 0 6 -1 6 -63 -28z"/>
<path d="M5775 3083 c-10 -16 -29 -41 -44 -58 l-26 -30 33 30 c30 26 70 85 58 85 -2 0 -12 -12 -21 -27z"/>
<path d="M5923 3095 c-3 -9 -3 -19 1 -22 8 -9 37 18 30 28 -8 14 -24 11 -31 -6z"/>
<path d="M3153 3083 c-7 -12 -13 -30 -13 -40 -1 -17 -2 -17 -15 1 -14 18 -15 16 -15 -33 0 -32 4 -50 10 -46 6 3 10 13 10 21 0 9 9 23 21 33 15 12 20 25 17 51 -3 33 -4 34 -15 13z"/>
<path d="M3343 3040 c0 -25 2 -35 4 -22 2 12 2 32 0 45 -2 12 -4 2 -4 -23z"/>
<path d="M3291 3038 c-9 -25 -8 -35 2 -45 12 -12 14 -7 14 32 0 25 -1 45 -3 45 -1 0 -7 -14 -13 -32z"/>
<path d="M2192 3047 c-17 -20 -12 -40 6 -28 8 5 12 16 10 26 -3 17 -4 17 -16 2z"/>
<path d="M973 3043 c15 -2 39 -2 55 0 15 2 2 4 -28 4 -30 0 -43 -2 -27 -4z"/>
<path d="M3206 2998 c3 -24 6 -93 7 -155 1 -61 5 -106 9 -100 4 7 8 29 8 51 0 29 3 37 14 33 23 -9 27 22 5 34 -26 13 -16 24 22 24 34 0 44 19 12 23 -23 3 -63 74 -63 112 0 11 -4 20 -10 20 -6 0 -8 -17 -4 -42z"/>
<path d="M1965 2990 c-44 -21 -74 -39 -67 -39 14 -1 152 66 152 74 0 6 9 10 -85 -35z"/>
<path d="M673 3009 c-32 -9 -63 -50 -63 -83 0 -8 12 -29 27 -47 27 -31 27 -31 4 -24 -31 10 -24 -12 13 -39 52 -39 201 -15 269 42 25 22 22 28 -30 59 -27 15 -70 44 -98 65 -52 39 -68 43 -122 27z"/>
<path d="M2217 2984 c-4 -4 -4 -30 -1 -58 7 -54 14 -74 14 -38 0 12 5 22 10 22 6 0 10 16 10 36 0 19 -4 33 -9 30 -5 -4 -11 -1 -13 5 -2 5 -7 7 -11 3z"/>
<path d="M5785 2981 c-6 -6 -23 -17 -40 -25 -18 -10 -23 -16 -13 -16 15 0 81 49 68 50 -4 0 -10 -4 -15 -9z"/>
<path d="M2830 2968 c0 -5 11 -33 25 -61 37 -72 27 -94 -13 -29 -17 28 -36 52 -41 52 -14 0 13 -67 37 -93 28 -29 28 -47 2 -47 -28 0 -80 27 -81 43 -1 6 -5 1 -9 -13 -8 -25 -8 -25 -15 8 -6 25 -13 32 -31 32 -18 0 -25 -7 -30 -27 -10 -48 -12 -49 -13 -10 -1 54 -21 36 -21 -19 0 -24 -4 -44 -9 -44 -5 0 -6 20 -3 45 6 60 -12 58 -25 -2 l-10 -48 -2 43 c-2 66 -21 49 -23 -20 l-2 -63 -3 53 c-6 75 -27 70 -42 -10 l-9 -43 -1 38 c-1 24 -7 40 -17 44 -23 9 -33 -6 -43 -67 l-9 -55 -1 53 c-1 69 -21 59 -22 -11 l-1 -52 -13 40 -13 40 -2 -40 -3 -40 -7 45 c-7 43 -7 42 -8 -22 -2 -81 -22 -92 -22 -12 0 36 -4 53 -10 49 -7 -4 -10 -43 -9 -96 1 -49 -1 -92 -4 -95 -3 -3 -9 41 -13 98 -4 57 -8 99 -10 93 -1 -5 -5 -22 -8 -37 -8 -34 -23 -36 -36 -5 -6 16 -9 -3 -9 -65 -1 -52 -5 -88 -11 -88 -6 0 -10 31 -11 73 0 49 -3 66 -9 52 -12 -29 -12 -163 1 -186 5 -11 9 -32 7 -47 -4 -24 -5 -25 -12 -7 -22 58 -24 57 -20 -8 2 -37 10 -80 18 -95 l15 -27 2 35 1 35 10 -42 c5 -26 15 -43 24 -43 11 0 14 15 14 63 0 73 19 61 21 -13 0 -25 2 -40 4 -35 2 6 11 35 20 65 26 85 83 195 121 231 29 28 42 33 96 37 35 3 72 11 83 18 11 7 34 15 50 18 17 4 57 13 90 22 115 30 104 32 165 -40 53 -65 89 -96 110 -96 5 0 -27 37 -71 82 -74 75 -107 123 -95 135 3 3 39 -30 80 -73 41 -43 77 -76 80 -73 3 3 1 21 -4 40 -6 18 -10 55 -10 81 0 26 -4 50 -10 53 -5 3 -21 31 -35 62 -35 76 -44 59 -11 -22 14 -36 26 -78 25 -93 0 -20 -6 -11 -26 38 -14 36 -33 92 -42 125 -9 33 -20 65 -23 71 -9 14 -68 16 -68 2z m-557 -449 c-5 -5 -8 17 -7 49 4 86 7 94 11 23 2 -35 0 -68 -4 -72z m-11 -116 c-2 -24 -8 -40 -13 -37 -11 6 -12 118 -2 128 11 11 20 -42 15 -91z"/>
<path d="M5750 2909 c-25 -17 -54 -41 -65 -54 -14 -17 -32 -25 -60 -26 -22 -2 -47 -8 -55 -15 -38 -30 -88 -38 -141 -25 -48 13 -53 12 -66 -5 -7 -10 -13 -33 -13 -50 0 -30 3 -34 35 -40 32 -6 51 -22 80 -68 9 -13 26 -8 131 42 66 31 133 67 150 79 l29 22 -40 -5 c-34 -5 -37 -4 -20 7 71 42 125 82 125 91 0 7 -7 5 -17 -4 -25 -20 -73 -39 -73 -28 0 5 9 11 20 15 10 3 33 24 50 45 l31 40 -52 -36 c-63 -42 -78 -35 -24 11 50 43 35 45 -25 4z"/>
<path d="M5523 2923 c9 -2 25 -2 35 0 9 3 1 5 -18 5 -19 0 -27 -2 -17 -5z"/>
<path d="M1035 2900 c-28 -7 -28 -8 -5 -9 14 0 32 4 40 9 17 11 8 11 -35 0z"/>
<path d="M3050 2898 c0 -7 6 -25 14 -39 7 -14 16 -36 19 -50 3 -13 21 -38 39 -54 18 -17 25 -21 16 -10 -9 11 -23 42 -30 69 -7 27 -18 51 -25 53 -7 3 -13 14 -13 24 0 10 -4 19 -10 19 -5 0 -10 -6 -10 -12z"/>
<path d="M4448 2845 c6 -11 25 -33 44 -50 l33 -30 -35 40 c-19 22 -39 45 -44 50 -5 6 -4 1 2 -10z"/>
<path d="M2150 2732 c-39 -44 -50 -91 -25 -112 20 -17 35 -4 35 31 0 45 18 34 23 -13 3 -41 4 -41 5 10 1 30 -2 52 -8 52 -6 0 -8 11 -4 25 7 29 -4 32 -26 7z"/>
<path d="M4860 2698 c24 -27 45 -48 47 -48 8 0 0 9 -44 50 l-48 45 45 -47z"/>
<path d="M1976 2682 c-22 -27 -24 -32 -7 -17 20 17 47 55 39 55 -2 0 -16 -17 -32 -38z"/>
<path d="M3040 2690 c0 -14 5 -32 10 -40 8 -12 10 -10 10 10 0 14 -5 32 -10 40 -8 12 -10 10 -10 -10z"/>
<path d="M2066 2665 c-10 -15 -26 -25 -40 -25 -23 0 -36 -16 -36 -46 0 -17 22 -18 75 -2 l40 12 -30 7 c-28 6 -29 7 -7 14 16 5 22 15 22 36 0 35 -3 36 -24 4z"/>
<path d="M3121 2669 c9 -17 13 -19 20 -8 5 8 3 16 -4 21 -22 14 -28 8 -16 -13z"/>
<path d="M3716 2651 c-26 -23 -57 -41 -69 -41 -33 0 -113 -55 -130 -89 -13 -26 -13 -32 -1 -42 8 -7 12 -19 9 -28 -5 -15 -4 -15 7 0 42 53 128 138 128 126 0 -8 -7 -20 -15 -27 -9 -7 -38 -46 -65 -87 -49 -73 -50 -77 -50 -149 0 -55 3 -74 13 -74 8 0 20 -12 27 -27 8 -18 14 -23 17 -15 3 7 16 18 30 23 18 7 23 14 18 27 -35 90 -28 158 24 220 24 30 34 34 89 39 43 4 62 10 62 19 0 8 -4 14 -8 14 -8 0 -32 43 -32 55 0 14 40 2 56 -16 16 -18 27 -20 79 -17 59 5 86 -4 123 -39 7 -7 18 -13 23 -13 6 0 -3 12 -18 26 l-28 25 25 -7 c22 -5 20 -1 -15 29 -22 20 -48 39 -57 42 -18 6 -25 25 -9 25 4 0 19 -8 32 -19 39 -30 69 -43 69 -31 0 6 -13 16 -30 21 -16 6 -30 17 -30 25 0 10 -15 14 -58 14 -32 0 -62 4 -68 10 -5 5 -30 13 -55 16 -42 6 -48 4 -93 -35z"/>
<path d="M3085 2631 c6 -37 11 -48 21 -39 3 3 -2 21 -11 39 l-15 34 5 -34z"/>
<path d="M3305 2597 c-26 -41 -67 -47 -107 -17 -43 32 -42 20 3 -28 21 -24 39 -45 39 -47 0 -11 -29 -4 -40 10 -23 28 -23 7 0 -25 26 -37 19 -51 -11 -24 l-22 19 17 -35 c9 -19 23 -47 31 -62 19 -34 19 -38 -5 -38 -22 0 -27 -15 -9 -26 6 -3 9 -18 6 -31 -9 -47 84 -124 98 -80 2 6 6 44 9 83 3 39 8 79 12 88 4 11 1 16 -10 16 -20 0 -20 10 0 39 22 30 27 121 7 121 -11 0 -10 5 3 26 10 14 13 29 8 34 -5 4 -18 -5 -29 -23z"/>
<path d="M3060 2603 c0 -13 5 -23 10 -23 13 0 13 11 0 30 -8 12 -10 11 -10 -7z"/>
<path d="M2894 2516 c22 -40 42 -72 44 -71 6 5 -68 145 -77 145 -5 0 10 -33 33 -74z"/>
<path d="M2571 2561 c-13 -9 -15 -32 -11 -183 0 -10 4 -18 9 -18 5 0 8 8 6 18 -1 9 6 27 17 38 15 17 18 30 13 58 -4 20 -11 33 -16 30 -14 -8 -11 40 3 54 14 14 0 16 -21 3z"/>
<path d="M2770 2560 c0 -17 23 -59 35 -64 8 -3 6 10 -7 35 -18 38 -28 49 -28 29z"/>
<path d="M2821 2560 c0 -8 18 -35 40 -60 37 -41 39 -42 20 -10 -33 55 -61 87 -60 70z"/>
<path d="M2653 2545 c-7 -19 14 -45 37 -45 10 0 20 9 23 19 6 26 -50 50 -60 26z"/>
<path d="M2485 2535 c-5 -11 -16 -25 -26 -32 -9 -7 -19 -21 -22 -32 -4 -17 -2 -19 20 -10 13 5 26 9 29 9 9 0 3 -37 -8 -48 -10 -10 -10 -17 0 -33 7 -11 10 -25 6 -31 -4 -7 -12 -2 -20 13 -13 24 -13 24 -15 -11 -2 -31 -3 -32 -6 -7 -7 43 -20 31 -22 -20 -2 -55 -21 -85 -21 -33 0 32 0 33 -20 15 -29 -26 -25 -88 10 -155 l28 -55 -5 45 c-3 25 -9 49 -14 55 -5 5 -9 18 -9 30 1 20 1 20 15 1 18 -23 25 -18 35 26 7 30 8 31 9 6 1 -24 3 -25 26 -15 33 16 32 35 -2 49 -27 11 -27 12 -6 15 13 3 29 14 37 25 8 11 19 17 25 13 7 -4 11 4 12 22 0 15 2 36 4 45 2 10 -2 21 -7 25 -6 3 -8 2 -5 -3 3 -6 2 -16 -3 -24 -6 -9 -10 -2 -15 26 -3 21 -10 55 -14 74 -7 30 -9 32 -16 15z"/>
<path d="M2170 2520 c0 -8 5 -22 10 -30 9 -13 10 -13 10 0 0 8 -5 22 -10 30 -9 13 -10 13 -10 0z"/>
<path d="M2944 2505 c9 -13 32 -54 52 -90 20 -36 38 -64 41 -62 6 7 -55 138 -74 159 -24 27 -38 22 -19 -7z"/>
<path d="M4430 2495 c0 -14 -4 -33 -9 -43 -11 -22 -42 -111 -48 -138 -3 -12 4 -39 16 -61 18 -37 19 -42 4 -63 -14 -20 -14 -26 -1 -54 18 -39 13 -66 -14 -66 -17 0 -18 -2 -8 -15 7 -8 20 -15 29 -15 9 0 26 -8 39 -18 l22 -17 -20 -40 c-11 -21 -20 -44 -20 -51 0 -6 21 -31 48 -56 67 -65 98 -108 106 -145 12 -52 30 -54 23 -2 l-7 44 35 -40 35 -40 0 37 c0 25 -5 38 -16 40 -18 3 -40 59 -51 128 -9 56 -7 49 -22 85 -36 84 -41 97 -41 107 0 9 3 9 13 0 6 -7 12 -16 13 -20 2 -13 34 -82 39 -82 9 0 -24 78 -71 170 l-48 95 -6 130 c-3 72 -9 136 -13 143 -13 20 -27 14 -27 -13z m68 -415 c17 -34 32 -68 32 -76 0 -8 7 -28 15 -45 9 -16 13 -35 9 -41 -8 -12 -28 30 -39 83 -4 19 -18 47 -31 62 -13 16 -24 34 -24 42 0 7 -7 18 -15 25 -21 17 -19 33 3 21 9 -5 32 -37 50 -71z m9 -155 c-1 -24 -4 -31 -12 -25 -7 6 -15 6 -22 -1 -8 -8 -13 -7 -19 2 -4 7 -3 14 3 16 6 2 9 13 6 23 -4 16 0 20 20 20 22 0 25 -4 24 -35z"/>
<path d="M880 2487 c0 -2 15 -16 33 -33 l32 -29 -29 33 c-28 30 -36 37 -36 29z"/>
<path d="M4010 2463 c13 -18 26 -30 29 -28 3 3 -8 18 -23 33 l-29 27 23 -32z"/>
<path d="M3929 2426 c26 -28 31 -31 31 -17 0 5 -12 17 -27 26 l-28 18 24 -27z"/>
<path d="M3990 2417 c19 -20 36 -37 38 -37 9 0 -29 44 -50 58 -14 10 -10 2 12 -21z"/>
<path d="M3818 2399 c-16 -11 -28 -17 -28 -13 0 4 -6 -1 -14 -11 -15 -20 -11 -48 9 -65 21 -17 48 17 41 52 -3 15 -4 28 -2 28 1 0 16 -11 32 -25 31 -27 47 -28 52 -2 2 10 -7 21 -22 28 -14 7 -26 16 -26 21 0 13 -13 9 -42 -13z"/>
<path d="M4516 2398 c1 -13 3 -31 3 -40 1 -25 31 -22 31 3 0 24 -17 59 -29 59 -4 0 -7 -10 -5 -22z"/>
<path d="M2710 2399 c0 -7 -12 -10 -29 -7 -26 4 -30 1 -35 -25 -4 -19 -1 -34 9 -44 14 -13 16 -11 21 15 5 26 11 30 35 30 31 -1 36 -7 18 -25 -7 -7 -3 -12 16 -15 18 -4 29 0 35 13 14 26 12 39 -5 39 -9 0 -18 7 -21 15 -7 17 -44 21 -44 4z"/>
<path d="M2590 2362 c0 -10 22 -32 32 -32 5 0 3 9 -4 20 -13 20 -28 27 -28 12z"/>
<path d="M3098 2247 c-6 -51 -1 -62 8 -18 5 25 9 29 21 20 24 -21 24 -3 -1 18 l-24 21 -4 -41z"/>
<path d="M2900 2256 c0 -11 49 -56 60 -56 7 0 0 13 -16 30 -26 27 -44 37 -44 26z"/>
<path d="M3704 2216 c-3 -8 0 -24 6 -35 24 -46 -26 -57 -59 -13 -13 18 -20 22 -21 12 0 -9 -6 -22 -12 -28 -18 -18 -16 -80 1 -87 24 -9 111 37 111 58 0 32 20 7 21 -26 1 -30 2 -29 14 13 10 36 13 39 14 18 1 -35 21 -47 21 -13 0 15 4 24 10 20 11 -7 14 34 4 59 -11 29 -43 19 -52 -16 l-8 -33 -7 43 c-7 42 -31 58 -43 28z"/>
<path d="M4253 2218 c-4 -7 -8 -40 -8 -73 0 -114 -70 -173 -235 -199 -46 -7 -86 -18 -88 -25 -2 -6 -9 -11 -16 -11 -8 0 -25 -9 -39 -20 -34 -27 -43 -25 -23 5 22 34 13 31 -26 -7 -41 -40 -51 -19 -12 25 l29 32 -31 -27 c-39 -36 -90 -37 -159 -4 -100 48 -142 108 -159 226 -9 63 -14 75 -31 77 -13 2 -30 -12 -50 -40 -23 -31 -38 -43 -62 -45 -45 -5 -65 -31 -61 -83 l3 -44 29 58 c16 32 31 56 33 53 7 -6 -49 -149 -60 -157 -6 -4 -6 -24 -2 -45 8 -44 -4 -39 -22 9 -11 32 -11 32 -12 5 -1 -27 -45 -78 -66 -78 -5 1 2 11 18 23 18 16 27 32 27 52 l0 30 -24 -30 c-13 -16 -27 -27 -31 -24 -3 4 5 19 18 35 46 54 76 164 46 164 -6 0 -31 13 -55 29 l-43 30 -21 -26 c-11 -14 -20 -36 -20 -48 0 -41 -38 -109 -90 -162 -29 -29 -55 -53 -60 -53 -4 0 -11 -12 -15 -27 -5 -20 -9 -23 -15 -13 -4 7 -6 19 -3 27 3 7 -1 13 -10 13 -12 0 -15 -8 -11 -37 3 -29 2 -33 -5 -18 -5 12 -16 26 -24 33 -18 15 -26 6 -33 -35 -3 -15 -7 -30 -10 -32 -4 -5 -7 33 -5 61 2 14 -2 15 -31 6 -18 -6 -39 -12 -45 -14 -7 -2 -13 -13 -13 -26 0 -16 -3 -19 -11 -11 -18 18 -7 58 19 61 14 2 22 10 22 22 0 10 10 26 22 34 22 16 22 16 -15 16 -21 0 -51 -7 -67 -15 -16 -8 -57 -18 -90 -22 -54 -5 -66 -3 -122 26 -67 33 -120 76 -131 105 -4 11 -13 16 -22 13 -8 -4 -16 1 -19 11 -4 15 -18 117 -20 147 -1 6 -16 11 -35 13 -29 3 -33 1 -26 -15 4 -10 14 -45 23 -78 8 -33 21 -65 28 -71 8 -6 14 -15 14 -20 1 -5 14 -25 31 -44 23 -27 32 -32 38 -22 15 24 22 -50 11 -107 -5 -30 -10 -73 -10 -97 0 -23 -5 -46 -11 -50 -7 -4 -9 -21 -5 -45 3 -22 2 -40 -4 -44 -6 -4 -8 -11 -5 -16 4 -5 2 -9 -2 -9 -12 0 -9 122 3 140 5 8 9 31 10 50 1 19 5 58 9 86 5 35 4 54 -4 58 -7 5 -11 -4 -11 -26 0 -25 -3 -29 -10 -18 -5 8 -10 25 -10 37 0 23 -45 83 -63 83 -8 0 -7 -4 1 -12 8 -8 12 -45 12 -100 0 -48 5 -98 11 -112 10 -22 9 -28 -12 -45 -20 -17 -26 -18 -35 -6 -8 10 -14 0 -27 -44 -9 -31 -17 -70 -17 -86 0 -17 -4 -37 -9 -44 -8 -12 -11 -9 -16 12 -12 47 -23 29 -35 -60 -14 -106 -17 -116 -31 -107 -6 3 -9 19 -5 35 3 16 2 28 -2 28 -30 -5 -34 2 -28 49 3 26 7 61 9 77 3 17 2 22 0 13 -2 -10 -8 -18 -13 -18 -4 0 -11 -18 -15 -40 -4 -22 -11 -40 -15 -40 -5 0 -10 -10 -12 -22 -2 -12 -9 -24 -17 -26 -11 -4 -13 6 -8 51 4 34 3 58 -3 62 -6 4 -10 -16 -10 -54 0 -34 -4 -61 -10 -61 -5 0 -10 19 -10 43 l0 42 -15 -29 c-10 -18 -15 -57 -15 -112 0 -49 -4 -84 -10 -84 -6 0 -10 29 -10 68 -1 98 -18 56 -21 -53 -2 -50 0 -96 4 -103 5 -7 10 -54 13 -104 5 -100 14 -133 14 -50 0 29 5 52 10 52 6 0 10 58 10 154 0 93 4 157 10 161 7 4 10 -65 10 -199 0 -131 4 -206 10 -206 9 0 16 261 10 353 -1 15 3 27 9 27 8 0 11 -72 11 -227 0 -124 2 -224 5 -221 3 3 6 96 7 207 1 111 6 205 10 207 4 3 8 -93 8 -213 0 -123 5 -225 10 -233 6 -10 10 75 10 249 0 145 2 262 4 260 3 -2 7 -36 11 -74 7 -79 15 -99 15 -37 0 22 4 43 8 46 5 3 6 -42 4 -100 -3 -77 -1 -104 8 -104 9 0 10 14 5 49 -4 30 -2 57 4 68 8 13 10 -44 8 -204 -2 -185 -1 -223 11 -228 11 -4 13 -17 9 -53 -3 -26 -1 -65 4 -87 5 -22 11 -52 14 -67 3 -16 12 -28 20 -28 11 0 14 7 9 24 -3 13 -1 27 5 30 6 4 11 -1 11 -11 0 -11 4 -23 9 -28 5 -6 11 -19 13 -30 4 -16 7 -12 15 15 l10 35 8 -30 c14 -59 17 -65 26 -59 5 3 6 11 2 17 -4 7 -11 39 -15 72 -10 85 -25 171 -41 235 -8 30 -12 70 -10 88 2 18 0 32 -6 32 -7 0 -11 -26 -11 -65 0 -36 4 -65 9 -65 19 0 33 -211 15 -217 -7 -2 -11 13 -10 44 0 26 -5 84 -13 128 -20 121 -24 214 -11 230 8 10 8 38 -1 112 -11 91 -10 104 9 182 12 47 22 104 22 128 0 27 4 42 10 38 12 -8 12 -343 -1 -351 -5 -3 -9 38 -9 98 -1 85 -3 99 -13 83 -14 -25 -12 -218 3 -223 5 -2 11 -16 11 -30 1 -21 4 -17 12 16 11 47 30 59 21 13 -4 -16 -1 -32 5 -35 7 -5 11 8 11 38 0 50 16 63 22 19 2 -16 8 19 14 77 l9 105 5 -100 c3 -62 0 -122 -8 -158 -8 -40 -9 -64 -2 -77 14 -26 13 -171 -1 -147 -6 10 -8 25 -5 32 3 8 1 17 -4 20 -6 4 -10 -1 -10 -9 0 -9 -4 -16 -10 -16 -5 0 -10 15 -10 34 0 19 5 38 10 41 6 3 10 17 10 31 0 13 -4 24 -10 24 -5 0 -10 -11 -10 -25 0 -26 -14 -34 -24 -12 -3 6 -3 -21 -1 -62 2 -41 9 -77 15 -81 6 -4 10 -20 8 -36 -1 -16 4 -39 10 -51 7 -12 12 -38 12 -57 0 -39 15 -79 44 -116 14 -19 17 -20 11 -5 -20 50 -33 245 -16 245 7 0 22 -90 26 -166 1 -18 12 -45 24 -62 12 -17 21 -34 20 -39 -1 -4 3 -19 9 -33 6 -14 11 -20 11 -15 1 29 -38 224 -49 244 -6 13 -13 51 -14 85 -1 34 -4 66 -8 71 -11 20 -6 143 6 161 10 13 10 28 3 63 -10 45 -12 106 -8 206 3 47 3 48 12 20 5 -16 11 -85 13 -151 2 -67 7 -127 11 -134 4 -6 7 -77 6 -157 0 -81 3 -151 8 -157 10 -12 26 -103 23 -126 -3 -25 21 -140 30 -140 4 0 8 -9 8 -19 0 -22 16 -36 24 -23 3 5 -4 42 -15 83 -11 41 -21 112 -24 159 l-4 85 15 -85 c16 -94 66 -254 71 -229 2 8 -4 42 -13 75 -9 32 -21 91 -25 129 -5 39 -14 90 -19 115 -12 59 -13 250 -2 250 5 0 11 -51 14 -113 2 -62 8 -119 13 -127 5 -8 10 -47 12 -87 1 -41 9 -94 18 -119 8 -24 15 -53 15 -63 0 -10 7 -24 15 -31 9 -7 14 -18 12 -24 -3 -7 6 -32 19 -56 13 -25 24 -37 24 -27 0 9 7 17 16 17 10 0 14 6 10 18 -33 116 -56 246 -62 355 -4 70 -5 127 -2 127 3 0 11 -51 17 -112 7 -62 17 -129 22 -148 5 -19 16 -66 24 -105 18 -91 57 -197 72 -203 8 -2 2 20 -13 54 -40 92 -95 354 -74 354 4 0 10 -19 14 -43 10 -62 87 -308 113 -360 26 -52 24 -22 -6 69 -34 107 -46 180 -31 189 5 3 10 -2 10 -12 0 -39 91 -293 105 -293 8 0 -1 81 -12 110 -6 14 -13 68 -16 120 l-6 95 19 -59 c11 -33 22 -85 25 -115 7 -64 26 -141 36 -141 3 0 2 21 -2 47 -10 59 -11 189 -3 180 4 -4 13 -53 20 -109 8 -63 19 -107 29 -117 13 -14 15 -10 15 32 0 26 5 47 10 47 6 0 10 -23 10 -51 l0 -50 33 4 32 3 2 73 c2 94 13 106 13 15 1 -45 6 -76 15 -88 14 -18 15 -11 15 75 0 64 3 89 10 79 5 -8 10 -36 10 -61 0 -26 7 -62 15 -80 14 -34 14 -34 15 39 0 46 4 71 10 67 6 -3 10 -28 10 -54 0 -41 12 -71 30 -71 3 0 4 36 2 80 -3 49 0 80 6 80 15 0 22 -27 22 -90 0 -76 16 -86 25 -15 9 74 25 80 25 11 0 -43 3 -56 15 -56 10 0 15 10 15 32 0 37 9 33 16 -8 7 -38 14 -44 14 -12 0 14 3 41 7 59 7 33 8 32 19 -26 11 -60 11 -60 23 -30 7 16 10 40 6 52 -3 13 -2 35 1 50 7 25 8 25 15 8 4 -11 8 -36 8 -55 1 -41 14 -65 30 -56 6 4 14 0 17 -8 10 -26 22 -9 29 44 9 66 25 64 26 -2 0 -29 3 -46 6 -38 2 8 8 24 13 35 4 11 12 29 16 40 6 15 9 6 12 -32 2 -29 8 -53 13 -53 6 0 8 4 4 10 -3 5 -1 17 4 27 6 10 15 34 19 53 9 35 9 35 17 -23 4 -31 11 -57 16 -57 5 0 8 3 8 7 -1 5 2 27 6 51 9 52 24 38 26 -23 l1 -40 12 50 12 50 8 -40 8 -40 18 41 c21 49 46 70 38 33 -3 -13 -9 -32 -13 -41 -5 -13 -3 -18 9 -18 11 0 20 15 28 44 13 49 28 52 28 5 0 -16 4 -29 9 -29 10 0 41 72 41 96 0 8 5 12 11 8 7 -4 9 -23 5 -53 l-7 -46 21 24 c11 13 20 34 20 47 0 12 5 26 10 29 6 4 10 -8 10 -29 0 -55 17 -43 31 21 l13 57 11 -49 c9 -40 13 -46 19 -30 22 58 25 61 25 27 l1 -33 29 33 c16 18 31 42 34 53 4 18 5 18 6 -2 0 -13 4 -23 9 -23 9 0 32 49 32 69 0 13 2 14 9 2 5 -8 7 -20 4 -27 -2 -6 0 -15 6 -19 6 -3 11 2 11 12 0 23 22 73 33 73 4 0 7 -12 7 -26 0 -14 4 -23 10 -19 6 3 10 14 10 24 0 10 7 32 15 47 8 16 15 37 15 47 0 11 5 15 11 11 7 -4 9 -21 6 -40 -3 -19 -2 -34 3 -34 12 0 47 51 65 94 15 35 35 48 35 24 0 -21 78 71 125 147 37 60 44 82 54 160 7 50 11 104 11 120 -1 17 4 68 10 115 7 47 12 139 12 205 0 106 1 114 9 65 14 -81 17 -83 18 -7 1 66 0 68 -39 106 -32 31 -40 46 -40 74 0 43 -10 52 -36 32 -25 -19 -30 -19 -54 7 -21 23 -27 58 -10 58 6 0 10 7 10 15 0 8 -9 15 -20 15 -15 0 -20 7 -20 24 0 14 -4 28 -10 31 -14 9 -12 47 5 89 l15 36 -30 0 c-28 0 -30 -3 -31 -37 l-1 -38 -12 45 c-10 36 -10 48 1 61 15 18 18 59 4 59 -12 0 -27 -21 -34 -50 -7 -26 18 -128 36 -145 7 -7 7 -6 2 4 -5 9 -3 12 6 9 8 -3 19 -27 25 -54 7 -27 21 -74 32 -105 11 -30 23 -74 27 -98 4 -24 16 -50 26 -59 25 -21 24 -67 0 -91 -20 -20 -20 -20 0 -26 33 -11 20 -38 -26 -50 -30 -9 -29 -9 15 -15 l45 -7 -33 -8 c-45 -11 -48 -21 -12 -40 21 -11 30 -23 30 -39 0 -25 -29 -88 -42 -94 -13 -6 -9 -22 6 -22 7 0 18 -6 24 -13 15 -17 3 -87 -14 -87 -23 0 -25 -18 -3 -39 l22 -20 -26 -6 c-14 -4 -27 -15 -30 -26 -4 -14 -14 -19 -41 -19 -40 0 -45 6 -19 25 15 11 15 13 -5 19 -28 9 -28 18 0 35 19 12 20 14 5 23 -9 5 -22 18 -28 29 -10 19 -8 20 18 19 45 -3 50 -1 24 13 -30 15 -39 37 -15 37 16 0 15 2 -4 16 -28 20 -20 36 13 24 15 -6 27 -6 30 0 3 5 -5 12 -19 16 -32 8 -56 34 -32 34 9 0 16 4 16 9 0 5 10 13 21 16 21 7 20 8 -10 27 -33 21 -38 37 -20 55 6 6 8 17 4 24 -6 9 -12 7 -23 -7 -13 -17 -14 -16 -10 21 3 22 -1 60 -9 84 -7 24 -10 47 -8 51 3 5 0 12 -6 16 -8 5 -9 -6 -3 -37 30 -160 -25 -529 -78 -529 -6 0 -4 10 4 23 27 40 49 248 43 396 -3 74 -7 137 -10 139 -5 5 -6 -20 -10 -173 -1 -64 -3 -75 -12 -75 -5 0 -9 45 -10 100 -2 161 -14 248 -39 287 -12 19 -11 24 7 47 19 24 19 26 3 52 -17 25 -17 29 -1 74 9 26 17 53 17 61 0 16 49 140 62 155 5 7 8 27 7 45 -1 19 2 46 6 62 6 21 4 27 -8 27 -9 0 -19 -6 -24 -12z m-908 -220 c-14 -31 -26 -72 -27 -92 -1 -43 -18 -27 -18 16 0 35 52 150 63 139 4 -4 -4 -33 -18 -63z m26 -27 c-12 -16 -20 -39 -19 -51 2 -13 -2 -25 -8 -27 -17 -6 -4 55 19 95 12 20 23 30 25 24 2 -7 -6 -25 -17 -41z m34 -28 c-5 -10 -13 -33 -19 -50 -11 -34 -26 -44 -26 -18 0 26 28 85 41 85 7 0 8 -7 4 -17z m-985 -90 c0 -54 -3 -73 -10 -63 -13 20 -13 140 0 140 6 0 10 -32 10 -77z m1000 32 c-6 -15 -13 -26 -16 -23 -2 3 0 18 6 33 6 15 13 26 16 23 2 -3 0 -18 -6 -33z m45 -5 c-8 -16 -15 -36 -15 -45 0 -8 -4 -15 -10 -15 -13 0 -13 3 6 50 9 22 20 40 25 40 5 0 3 -13 -6 -30z m540 19 c4 -6 28 -9 54 -8 53 2 121 -10 121 -21 0 -28 -119 -27 -181 3 -27 12 -48 25 -49 30 0 11 48 8 55 -4z m-1554 -72 c-11 -11 -23 51 -14 66 4 7 10 -3 14 -23 4 -19 4 -39 0 -43z m-122 -9 c1 -29 -3 -38 -15 -38 -11 0 -14 5 -10 16 3 9 6 34 7 57 0 33 2 38 9 22 5 -11 9 -37 9 -57z m161 -31 c0 -50 -4 -76 -10 -72 -5 3 -10 45 -10 93 0 60 3 82 10 72 5 -8 10 -50 10 -93z m80 69 c0 -8 -5 -18 -10 -21 -6 -3 -7 -17 -4 -31 4 -14 2 -24 -5 -24 -12 0 -16 72 -4 83 11 12 23 8 23 -7z m-50 -41 c0 -25 -4 -45 -9 -45 -5 0 -8 8 -6 18 2 9 4 29 4 45 2 46 11 30 11 -18z m70 -11 c-8 -27 -8 -26 -9 16 0 32 2 40 9 29 5 -9 6 -28 0 -45z m107 2 c-2 -6 -9 -11 -15 -10 -7 1 -21 2 -32 3 -35 2 -21 20 15 19 21 -1 34 -6 32 -12z m923 -53 c0 -12 5 -23 12 -25 6 -2 9 -9 7 -16 -7 -21 -30 4 -39 41 -4 20 -5 39 -2 42 8 8 22 -17 22 -42z m-1212 -75 c0 -61 -5 -98 -13 -108 -7 -8 -15 -26 -18 -40 -7 -37 0 148 8 198 12 72 24 46 23 -50z m31 50 c-1 -18 -5 -44 -9 -58 -6 -19 -8 -11 -9 33 -1 32 3 57 9 57 6 0 10 -15 9 -32z m-118 -66 c-5 -39 -16 -81 -25 -94 l-16 -22 0 21 c0 12 5 25 11 29 6 3 8 15 6 26 -6 19 21 124 29 116 2 -3 0 -37 -5 -76z m-49 -5 c-12 -27 -17 -56 -14 -78 3 -28 2 -32 -9 -21 -7 6 -13 27 -12 45 0 40 44 140 50 115 2 -9 -4 -37 -15 -61z m967 -1 c1 -24 -1 -27 -14 -16 -15 13 -21 71 -8 84 9 9 21 -27 22 -68z m41 34 c0 -22 -3 -40 -8 -40 -4 0 -6 18 -4 40 2 22 6 40 8 40 2 0 4 -18 4 -40z m87 0 c-1 -22 -5 -40 -9 -40 -4 0 -8 18 -8 40 0 22 4 40 9 40 6 0 9 -18 8 -40z m-48 -27 c1 -7 -3 -13 -9 -13 -5 0 -10 17 -9 38 1 33 2 34 9 12 4 -14 8 -31 9 -37z m740 -18 c0 -16 -7 -39 -15 -50 -15 -19 -16 -18 -10 16 4 20 2 48 -3 62 -5 14 -7 28 -4 31 11 11 32 -29 32 -59z m127 -2 c11 -47 12 -98 5 -238 l-3 -70 -8 50 c-4 28 -6 65 -4 84 1 19 -2 46 -8 60 -5 14 -11 46 -11 71 -2 39 -5 45 -23 43 -14 -2 -25 6 -32 22 -11 24 -11 25 31 25 42 0 42 0 53 -47z m-996 -5 c0 -23 -3 -38 -7 -34 -10 10 -10 76 0 76 4 0 7 -19 7 -42z m-180 -43 c0 -42 -2 -47 -13 -35 -9 10 -12 31 -9 64 5 62 22 41 22 -29z m146 -47 c3 -21 2 -38 -2 -38 -17 0 -33 55 -29 100 6 79 7 76 31 -62z m524 88 c0 -20 -12 -27 -26 -15 -7 6 -10 17 -8 24 7 16 34 8 34 -9z m30 -5 c0 -17 -4 -32 -8 -35 -4 -2 -8 11 -8 30 0 19 4 34 8 34 4 0 8 -13 8 -29z m-616 -34 c-3 -8 0 -26 6 -42 7 -19 8 -31 0 -39 -7 -7 -10 -2 -10 16 0 15 -4 29 -8 32 -4 2 -6 24 -4 48 4 36 6 40 13 20 5 -12 6 -28 3 -35z m660 37 c3 -9 6 -27 6 -41 0 -22 -2 -23 -15 -9 -16 16 -21 66 -6 66 5 0 12 -7 15 -16z m77 -43 c-5 -24 -6 -24 -11 9 -3 19 -4 39 -1 44 8 16 18 -26 12 -53z m-769 -63 c2 -38 1 -68 -2 -68 -13 0 -28 23 -23 36 3 8 0 20 -5 27 -7 8 -7 18 -2 27 6 8 10 29 10 45 1 55 17 4 22 -67z m738 67 c0 -8 -4 -15 -10 -15 -5 0 -10 7 -10 15 0 8 5 15 10 15 6 0 10 -7 10 -15z m326 -9 c16 -13 19 -27 19 -111 0 -53 -3 -99 -7 -102 -9 -4 -10 19 -10 108 1 47 -3 60 -24 80 -13 12 -24 26 -24 31 0 13 24 9 46 -6z m-1547 -111 c-1 -52 -4 -109 -8 -127 l-7 -33 -11 44 c-13 48 3 211 19 211 5 0 8 -43 7 -95z m220 83 c-2 -24 -17 -63 -18 -48 -1 8 -4 25 -7 38 -5 16 -2 22 10 22 9 0 16 -6 15 -12z m-383 -148 c-2 -66 0 -117 5 -115 4 3 10 -3 12 -12 8 -28 3 -261 -6 -269 -4 -4 -7 35 -7 87 0 52 -5 110 -11 129 -11 34 -13 275 -3 292 11 18 13 3 10 -112z m411 68 c-2 -13 -4 -5 -4 17 -1 22 1 32 4 23 2 -10 2 -28 0 -40z m-116 -3 c4 -49 0 -75 -12 -75 -6 0 -8 9 -4 20 5 14 2 20 -9 20 -19 0 -20 18 -6 56 13 32 27 22 31 -21z m69 -12 c0 -19 -3 -24 -10 -17 -6 6 -8 18 -4 27 9 24 14 21 14 -10z m1771 0 c0 -16 2 -44 4 -63 8 -67 6 -98 -6 -105 -5 -4 -9 -19 -9 -36 0 -16 -5 -29 -11 -29 -8 0 -9 21 -4 73 5 39 9 98 9 129 1 58 15 83 17 31z m-2386 -158 c4 -88 8 -181 10 -207 1 -27 1 -48 -1 -48 -2 0 -11 16 -19 36 -10 24 -15 69 -15 128 0 91 11 259 16 254 1 -2 6 -75 9 -163z m305 133 c-1 -26 -3 -30 -10 -16 -6 9 -7 23 -4 32 9 25 14 19 14 -16z m41 -211 c-7 -7 -9 27 -6 99 5 146 9 151 12 20 2 -64 0 -113 -6 -119z m-41 -17 c2 -187 2 -180 -7 -180 -5 0 -8 79 -8 175 0 95 3 171 7 167 4 -4 8 -77 8 -162z m1760 50 c0 -22 -4 -40 -9 -40 -5 0 -9 18 -9 40 0 22 3 40 9 40 5 0 9 -18 9 -40z m-1690 -104 c0 -41 -13 -68 -23 -49 -7 14 5 93 14 93 5 0 9 -20 9 -44z m-361 -233 c1 -49 6 -116 12 -151 11 -65 8 -92 -11 -92 -6 0 -8 15 -4 39 4 24 2 41 -5 45 -13 9 -15 246 -2 246 5 0 9 -39 10 -87z m377 28 c-9 -10 -16 -25 -16 -34 0 -9 -4 -17 -9 -17 -5 0 -8 12 -8 27 0 30 40 79 45 56 2 -8 -3 -22 -12 -32z m1827 1 c19 -8 27 -19 27 -37 0 -14 -5 -25 -11 -25 -6 0 -9 -7 -5 -15 4 -12 0 -14 -22 -9 -22 5 -25 4 -15 -6 16 -17 -2 -41 -23 -33 -19 7 -18 -12 2 -32 20 -20 3 -45 -31 -45 -29 0 -36 -9 -25 -29 5 -10 5 -23 1 -30 -6 -8 -16 -1 -35 24 -32 42 -27 55 20 55 24 0 34 4 31 13 -3 8 -20 11 -48 9 l-44 -2 30 20 c17 12 41 26 55 31 l25 11 -24 19 c-27 22 -23 32 14 32 20 0 25 4 25 26 0 16 -8 31 -20 39 -12 7 -18 17 -15 23 4 5 17 2 33 -9 15 -10 39 -23 55 -30z m-1941 -94 c6 -94 -7 -123 -16 -37 -9 87 -8 135 3 124 5 -6 11 -45 13 -87z m95 -8 c-1 -11 -5 -20 -9 -20 -4 0 -8 9 -8 20 0 11 4 20 9 20 6 0 9 -9 8 -20z m27 -102 c3 -13 6 -42 6 -66 0 -24 4 -51 10 -61 5 -10 12 -49 16 -87 4 -38 13 -75 21 -82 15 -16 17 -29 4 -37 -11 -6 -27 41 -36 110 -4 27 -13 61 -20 75 -14 28 -27 170 -15 170 4 0 10 -10 14 -22z m142 -123 c4 -31 2 -36 -6 -23 -5 9 -12 45 -15 80 -4 58 -4 60 6 23 6 -22 12 -58 15 -80z m49 -2 c3 -21 12 -57 20 -80 7 -24 10 -45 6 -48 -10 -6 -18 17 -35 103 -7 34 -9 62 -5 62 5 0 11 -17 14 -37z m102 -70 c-3 -10 -5 -2 -5 17 0 19 2 27 5 18 2 -10 2 -26 0 -35z m63 -34 c0 -54 -14 -49 -18 7 -2 30 1 44 8 39 5 -3 10 -24 10 -46z m70 -91 c0 -29 2 -69 4 -88 2 -19 1 -26 -1 -15 -3 11 -9 24 -14 29 -12 13 -12 126 1 126 6 0 10 -24 10 -52z m-58 -9 c-1 -22 -3 -44 -6 -47 -3 -3 -6 19 -6 48 0 29 3 51 6 47 4 -3 6 -25 6 -48z m504 -97 c-12 -11 -18 7 -10 30 l8 23 4 -23 c2 -13 1 -26 -2 -30z"/>
<path d="M3224 2185 c11 -8 25 -15 30 -15 6 0 2 7 -8 15 -11 8 -25 15 -30 15 -6 0 -2 -7 8 -15z"/>
<path d="M3830 2140 c0 -25 4 -39 10 -35 6 3 10 19 10 35 0 16 -4 32 -10 35 -6 4 -10 -10 -10 -35z"/>
<path d="M3870 2125 c0 -18 5 -25 19 -25 28 0 36 19 15 35 -27 20 -34 18 -34 -10z"/>
<path d="M2800 2108 c0 -8 14 -24 30 -36 40 -30 39 -5 -1 26 -20 17 -29 19 -29 10z"/>
<path d="M3932 2108 c6 -18 28 -21 28 -4 0 9 -7 16 -16 16 -9 0 -14 -5 -12 -12z"/>
<path d="M2691 2076 c-9 -11 -6 -12 14 -8 14 2 22 8 19 13 -8 13 -20 11 -33 -5z"/>
<path d="M2600 2063 c-8 -4 -21 -12 -28 -20 -7 -7 -21 -13 -30 -14 -9 0 -12 -3 -5 -5 13 -6 68 20 78 36 7 11 7 11 -15 3z"/>
<path d="M2018 2033 c-24 -28 -34 -52 -53 -133 -10 -41 -21 -88 -26 -104 -5 -16 -9 -41 -9 -55 0 -14 -9 -44 -19 -66 l-19 -40 -1 40 c0 57 42 255 64 297 3 7 -2 4 -12 -8 -18 -20 -40 -104 -63 -237 -10 -53 -10 -74 0 -98 l13 -30 19 30 c11 16 24 56 29 88 5 32 16 83 25 113 9 30 20 75 25 100 13 65 19 80 31 80 6 0 8 -10 4 -26 -19 -73 -14 -80 9 -14 14 41 25 76 25 78 0 9 -30 -1 -42 -15z"/>
<path d="M4602 1928 c6 -18 17 -49 24 -68 11 -30 13 -32 13 -10 1 24 -33 110 -43 110 -2 0 1 -15 6 -32z"/>
<path d="M2039 1904 c-15 -35 -21 -66 -33 -174 -2 -19 -6 -47 -9 -62 -2 -16 0 -28 4 -28 5 0 11 12 15 28 3 15 10 43 15 62 5 19 9 52 9 73 0 21 5 47 11 58 5 11 9 34 7 51 l-3 31 -16 -39z"/>
<path d="M4240 1884 c0 -58 13 -94 35 -100 23 -6 33 -23 56 -99 17 -59 23 -64 30 -25 l6 35 11 -30 c7 -16 17 -39 22 -50 l11 -20 -7 20 c-3 11 -8 45 -11 75 -3 30 -10 62 -14 70 -6 10 -7 4 -3 -15 12 -54 -15 -14 -28 43 -7 29 -16 52 -20 52 -11 0 -10 -48 1 -54 13 -8 21 -46 10 -46 -5 0 -13 8 -16 18 -4 9 -10 19 -13 22 -4 3 -21 32 -39 64 -17 32 -31 50 -31 40z"/>
<path d="M1993 1835 c-7 -27 -15 -66 -18 -85 -5 -35 -5 -34 15 10 13 27 20 59 18 85 l-3 40 -12 -50z"/>
<path d="M4347 1848 c8 -46 13 -48 13 -5 0 21 -4 37 -10 37 -5 0 -7 -14 -3 -32z"/>
<path d="M4631 1571 c-10 -7 -12 -21 -7 -59 5 -37 3 -52 -8 -61 -11 -9 -15 -36 -15 -103 0 -49 -3 -104 -6 -122 -3 -17 -1 -47 4 -66 9 -33 9 -32 10 20 1 31 5 60 10 65 6 6 13 81 17 168 8 181 27 204 25 30 -2 -147 12 -180 19 -43 8 159 -4 200 -49 171z"/>
<path d="M1856 1424 c-3 -9 -5 -66 -5 -127 2 -105 2 -108 9 -47 5 36 11 93 15 128 5 41 4 62 -3 62 -5 0 -13 -7 -16 -16z"/>
<path d="M2079 1215 c-3 -11 -4 -82 -1 -157 3 -100 8 -138 17 -138 9 0 11 30 10 118 -1 64 -5 124 -8 132 -3 8 -7 26 -9 40 -3 22 -4 23 -9 5z"/>
<path d="M4586 1092 c-5 -18 -5 -36 -2 -39 7 -7 19 43 13 59 -2 7 -7 -2 -11 -20z"/>
<path d="M3223 233 c9 -2 25 -2 35 0 9 3 1 5 -18 5 -19 0 -27 -2 -17 -5z"/>
</g>


</svg>